<?xml version="1.0" encoding="UTF-8"?>
<svg version="1.1" xmlns="http://www.w3.org/2000/svg" width="225" height="225">
<path d="M0 0 C74.25 0 148.5 0 225 0 C225 74.25 225 148.5 225 225 C150.75 225 76.5 225 0 225 C0 150.75 0 76.5 0 0 Z " fill="#FE090A" transform="translate(0,0)"/>
<path d="M0 0 C74.25 0 148.5 0 225 0 C225 35.64 225 71.28 225 108 C224.01 108.33 223.02 108.66 222 109 C221.34 109.99 220.68 110.98 220 112 C218.68 111.67 217.36 111.34 216 111 C216 110.34 216 109.68 216 109 C216.66 109 217.32 109 218 109 C218 108.34 218 107.68 218 107 C218.66 107 219.32 107 220 107 C220.33 105.68 220.66 104.36 221 103 C221.99 103 222.98 103 224 103 C224 102.34 224 101.68 224 101 C222.68 101 221.36 101 220 101 C219.67 100.34 219.34 99.68 219 99 C218.34 99 217.68 99 217 99 C216.67 99.66 216.34 100.32 216 101 C209.58311325 101.10349817 203.37305598 100.74507544 197 100 C197 100.66 197 101.32 197 102 C185.77750811 102.02319512 174.55502195 102.04095164 163.33251095 102.05181217 C158.12116078 102.05702531 152.90982704 102.06409445 147.69848633 102.07543945 C142.66698101 102.0863241 137.63549148 102.09228866 132.6039753 102.09487724 C130.68669957 102.09672144 128.76942468 102.10032267 126.85215569 102.10573006 C124.16175359 102.11301451 121.47141627 102.11398782 118.78100586 102.11352539 C117.99265854 102.11712067 117.20431122 102.12071594 116.39207458 102.12442017 C111.83201302 102.11596804 107.51991631 101.67662993 103 101 C100.41397595 101.39029557 100.41397595 101.39029557 98 102 C94.27259869 102.21188533 90.54537844 102.18509014 86.8125 102.1875 C85.80251953 102.19974609 84.79253906 102.21199219 83.75195312 102.22460938 C82.78837891 102.22654297 81.82480469 102.22847656 80.83203125 102.23046875 C79.95264893 102.23457764 79.0732666 102.23868652 78.16723633 102.24291992 C76 102 76 102 74 100 C74.375 96.875 74.375 96.875 75 94 C74.319375 93.979375 73.63875 93.95875 72.9375 93.9375 C69.09678362 92.71173945 67.31416627 90.53690756 64.6484375 87.59375 C61.99558329 85.02890518 59.9560981 84.9992559 56.3125 84.9375 C55.219375 84.958125 54.12625 84.97875 53 85 C52.34 86.32 51.68 87.64 51 89 C51.7425 89.556875 52.485 90.11375 53.25 90.6875 C55.91889503 92.93179809 57.8578651 95.26693133 60 98 C60.99 98.495 60.99 98.495 62 99 C62 99.99 62 100.98 62 102 C58.85418577 102.02888514 55.70840531 102.04675923 52.5625 102.0625 C51.66466797 102.07087891 50.76683594 102.07925781 49.84179688 102.08789062 C48.56079102 102.09272461 48.56079102 102.09272461 47.25390625 102.09765625 C46.46314697 102.10289307 45.6723877 102.10812988 44.85766602 102.11352539 C43 102 43 102 42 101 C40.845 100.855625 39.69 100.71125 38.5 100.5625 C36.7675 100.2840625 36.7675 100.2840625 35 100 C34.67 99.34 34.34 98.68 34 98 C27.35974711 96.8359716 21.40271697 97.15839123 14.75 98 C13.01648929 98.21540666 11.28211128 98.42396653 9.546875 98.625 C8.79245117 98.72039062 8.03802734 98.81578125 7.26074219 98.9140625 C5 99 5 99 0 98 C0 65.66 0 33.32 0 0 Z " fill="#FE090A" transform="translate(0,0)"/>
<path d="M0 0 C2.375 0.8125 2.375 0.8125 4.375 2.8125 C4.7890625 5.4140625 4.7890625 5.4140625 5 8.4375 C5.07476562 9.44039062 5.14953125 10.44328125 5.2265625 11.4765625 C5.27554688 12.24742188 5.32453125 13.01828125 5.375 13.8125 C5.73851562 13.3071875 6.10203125 12.801875 6.4765625 12.28125 C10.57155667 6.98925753 10.57155667 6.98925753 14.5 6.125 C18.18651844 7.00655876 19.16281756 7.70987935 21.375 10.8125 C21.99537899 14.30442384 22.02647211 17.77215973 22.0625 21.3125 C22.10471257 23.19799489 22.15016307 25.08342073 22.19921875 26.96875 C22.21601685 28.21881836 22.21601685 28.21881836 22.2331543 29.49414062 C22.30014981 31.81511823 22.30014981 31.81511823 22.94848633 34.00585938 C23.375 35.8125 23.375 35.8125 22.375 37.5625 C19.31064188 39.47772382 16.9014458 39.19033348 13.375 38.8125 C10.75906847 36.98134793 10.40510545 35.90281634 9.375 32.8125 C9.30529948 30.41759014 9.29051997 28.02082309 9.3125 25.625 C9.32152344 24.35269531 9.33054688 23.08039063 9.33984375 21.76953125 C9.35144531 20.79371094 9.36304688 19.81789063 9.375 18.8125 C8.385 19.1425 7.395 19.4725 6.375 19.8125 C4.87912749 24.30011754 5.0914176 28.85522778 4.94921875 33.5625 C4.375 36.8125 4.375 36.8125 2.49609375 38.76171875 C0.375 39.8125 0.375 39.8125 -2.25 39.625 C-4.625 38.8125 -4.625 38.8125 -6.625 36.8125 C-6.625 35.8225 -6.625 34.8325 -6.625 33.8125 C-8.605 34.4725 -10.585 35.1325 -12.625 35.8125 C-12.625 36.4725 -12.625 37.1325 -12.625 37.8125 C-19.848219 38.30220976 -19.848219 38.30220976 -23.5 36 C-27.4345195 31.94975934 -27.91979169 29.54270086 -27.9375 24 C-27.96263672 22.19595703 -27.96263672 22.19595703 -27.98828125 20.35546875 C-27.51573813 15.74690305 -26.03012109 12.43379357 -23 8.9375 C-19.37082098 7.2184152 -15.56359093 7.07265419 -11.625 7.8125 C-9.1812898 9.7143921 -8.67349468 10.64090344 -7.8125 13.6875 C-7.61186932 17.03134463 -8.142651 18.84780199 -9.625 21.8125 C-10.285 21.8125 -10.945 21.8125 -11.625 21.8125 C-11.625 19.8325 -11.625 17.8525 -11.625 15.8125 C-14.74285113 16.45894661 -14.74285113 16.45894661 -15.625 18.8125 C-15.6939472 20.18592831 -15.70967708 21.56252102 -15.6875 22.9375 C-15.666875 24.21625 -15.64625 25.495 -15.625 26.8125 C-11.75006344 27.88887127 -10.10047073 27.75816951 -6.625 25.8125 C-6.64594727 25.13147217 -6.66689453 24.45044434 -6.68847656 23.7487793 C-6.77157452 20.66600278 -6.82363954 17.58346163 -6.875 14.5 C-6.90851563 13.42814453 -6.94203125 12.35628906 -6.9765625 11.25195312 C-6.98945312 10.22392578 -7.00234375 9.19589844 -7.015625 8.13671875 C-7.03657227 7.18885498 -7.05751953 6.24099121 -7.07910156 5.2644043 C-6.625 2.8125 -6.625 2.8125 -4.76464844 0.96801758 C-2.625 -0.1875 -2.625 -0.1875 0 0 Z " fill="#F9F5F4" transform="translate(106.625,101.1875)"/>
<path d="M0 0 C2.13586678 3.20380017 2.23132175 4.01939967 2.125 7.6875 C2.10695313 8.49574219 2.08890625 9.30398437 2.0703125 10.13671875 C2.04710938 10.75160156 2.02390625 11.36648437 2 12 C2.845625 11.319375 3.69125 10.63875 4.5625 9.9375 C8 8 8 8 11.6875 8 C15 9 15 9 16.6953125 10.484375 C18.6897789 14.32999285 18.31728838 17.99027885 18.1875 22.25 C18.16719727 23.51070312 18.16719727 23.51070312 18.14648438 24.796875 C18.11123464 26.86485938 18.0574302 28.93251271 18 31 C18.66 31 19.32 31 20 31 C20.3125 33.25 20.3125 33.25 20 36 C17.875 38.375 17.875 38.375 15 40 C11.64386189 40 9.84010351 39.76337274 7.33203125 37.484375 C5.34742726 33.78288486 5.67905246 30.37660852 5.8125 26.25 C5.83280273 25.06083984 5.83280273 25.06083984 5.85351562 23.84765625 C5.88874777 21.89814436 5.94255179 19.94898374 6 18 C2.46138942 21.43752087 2.46138942 21.43752087 -0.5625 25.3125 C-1.036875 25.869375 -1.51125 26.42625 -2 27 C-3.32 27 -4.64 27 -6 27 C-7.32 24.03 -8.64 21.06 -10 18 C-11.65 18.33 -13.3 18.66 -15 19 C-15 22.3 -15 25.6 -15 29 C-12.36 29.66 -9.72 30.32 -7 31 C-7.36129032 36.41935484 -7.36129032 36.41935484 -10.0625 38.875 C-13.84029622 40.32181557 -17.01229843 40.8718052 -21 40 C-25.14619281 36.75515345 -27.68984025 33.5245561 -28.3359375 28.265625 C-28.4379595 20.38952656 -27.43087099 15.06621747 -22.3125 9 C-18.63823716 7.41112958 -14.94343914 7.7724939 -11 8 C-11 8.66 -11 9.32 -11 10 C-10.34 10 -9.68 10 -9 10 C-9.061875 8.906875 -9.12375 7.81375 -9.1875 6.6875 C-9 3 -9 3 -7.875 1.0625 C-5.12198451 -0.49754211 -3.0996593 -0.39570119 0 0 Z " fill="#F9F2F0" transform="translate(40,101)"/>
<path d="M0 0 C0.66 0.33 1.32 0.66 2 1 C2 5.62 2 10.24 2 15 C3.65 15.33 5.3 15.66 7 16 C7.99 16.33 8.98 16.66 10 17 C9.97679687 16.37351562 9.95359375 15.74703125 9.9296875 15.1015625 C9.91164062 14.28429687 9.89359375 13.46703125 9.875 12.625 C9.85179687 11.81289062 9.82859375 11.00078125 9.8046875 10.1640625 C10 8 10 8 12 6 C14.9375 5.625 14.9375 5.625 18 6 C20.0064453 8.06939375 20.91412978 9.4226074 21.34057617 12.29003906 C21.3170105 13.5154541 21.3170105 13.5154541 21.29296875 14.765625 C21.2784668 16.09980469 21.2784668 16.09980469 21.26367188 17.4609375 C21.23853516 18.38132812 21.21339844 19.30171875 21.1875 20.25 C21.16719727 21.65378906 21.16719727 21.65378906 21.14648438 23.0859375 C21.11119954 25.39121327 21.06190281 27.6953106 21 30 C21.99 30 22.98 30 24 30 C23.67842796 32.97454134 23.37860258 34.59335278 21.3125 36.8125 C18.28107465 38.36917788 16.36247778 38.50079456 13 38 C10.72680213 35.73211334 10.04389909 34.41908996 9.70703125 31.203125 C9.74183594 30.22859375 9.77664062 29.2540625 9.8125 28.25 C9.83957031 27.26515625 9.86664063 26.2803125 9.89453125 25.265625 C9.92933594 24.51796875 9.96414062 23.7703125 10 23 C9.05125 22.690625 8.1025 22.38125 7.125 22.0625 C4 21 4 21 2 20 C2.05800781 20.96421875 2.11601562 21.9284375 2.17578125 22.921875 C2.22089844 24.18515625 2.26601562 25.4484375 2.3125 26.75 C2.37050781 28.00296875 2.42851562 29.2559375 2.48828125 30.546875 C2 34 2 34 -0.30078125 36.41796875 C-3.87174846 38.51093795 -5.9235312 38.65514677 -10 38 C-12.9375 36.1875 -12.9375 36.1875 -15 33 C-15.903411 27.71425319 -15.86902219 23.47733773 -13.125 18.8125 C-11 17 -11 17 -9 17 C-9.04640625 15.95199219 -9.0928125 14.90398437 -9.140625 13.82421875 C-9.17814548 12.44534099 -9.21454536 11.06643242 -9.25 9.6875 C-9.28351563 8.99720703 -9.31703125 8.30691406 -9.3515625 7.59570312 C-9.45031112 2.48546199 -9.45031112 2.48546199 -7.1484375 0.00390625 C-4.34547619 -1.30584113 -2.90666705 -0.91789486 0 0 Z " fill="#F9EEEB" transform="translate(149,102)"/>
<path d="M0 0 C3.0625 0.375 3.0625 0.375 4.7355957 2.00488281 C6.45084659 5.06866489 6.40500674 7.17119052 6.35546875 10.671875 C6.3409668 12.47978516 6.3409668 12.47978516 6.32617188 14.32421875 C6.30103516 15.57847656 6.27589844 16.83273438 6.25 18.125 C6.22969727 20.02958984 6.22969727 20.02958984 6.20898438 21.97265625 C6.1736324 25.10719844 6.12428248 28.24088545 6.0625 31.375 C6.7225 31.375 7.3825 31.375 8.0625 31.375 C7.46392752 34.7270059 6.53456611 36.98817755 4.0625 39.375 C0.875 39.625 0.875 39.625 -1.9375 39.375 C-2.5975 38.055 -3.2575 36.735 -3.9375 35.375 C-4.5975 35.375 -5.2575 35.375 -5.9375 35.375 C-6.4325 25.97 -6.4325 25.97 -6.9375 16.375 C-8.9175 16.705 -10.8975 17.035 -12.9375 17.375 C-14.31976016 20.13952033 -14.03275387 22.4211363 -14 25.5 C-13.98646484 27.14355469 -13.98646484 27.14355469 -13.97265625 28.8203125 C-13.96105469 29.66335937 -13.94945312 30.50640625 -13.9375 31.375 C-11.9575 31.045 -9.9775 30.715 -7.9375 30.375 C-8.26833605 33.35252446 -8.81165352 35.18874721 -10.5 37.6875 C-13.35537035 39.66429486 -15.5184556 39.9507846 -18.97265625 39.7578125 C-22.19220825 39.13054392 -23.77690035 37.78978784 -25.9375 35.375 C-28.73707305 29.5092279 -28.6256549 23.86956152 -26.9375 17.75 C-24.34380407 13.37313812 -21.64751345 10.43513944 -16.9375 8.375 C-13.46825153 8.18747306 -10.31882306 8.61281652 -6.9375 9.375 C-6.9375 10.035 -6.9375 10.695 -6.9375 11.375 C-6.2775 11.375 -5.6175 11.375 -4.9375 11.375 C-4.96070313 10.74851562 -4.98390625 10.12203125 -5.0078125 9.4765625 C-5.02585938 8.65929687 -5.04390625 7.84203125 -5.0625 7 C-5.08570313 6.18789062 -5.10890625 5.37578125 -5.1328125 4.5390625 C-4.80771199 0.93694883 -3.43134031 0.43804344 0 0 Z " fill="#FAF5F3" transform="translate(202.9375,100.625)"/>
<path d="M0 0 C6.17504227 0.52330867 9.19215247 3.58914901 13.16015625 8.0078125 C14.95625665 9.54207729 16.38514939 9.90649409 18.6875 10.3125 C18.14026317 13.68712715 17.6326 15.39485 15.6875 18.3125 C16.17645752 18.67964111 16.66541504 19.04678223 17.16918945 19.42504883 C19.34254329 22.12680128 19.0288141 24.07919863 18.98046875 27.51171875 C18.97080078 28.72021484 18.96113281 29.92871094 18.95117188 31.17382812 C18.92603516 32.43646484 18.90089844 33.69910156 18.875 35 C18.85469727 36.91135742 18.85469727 36.91135742 18.83398438 38.86132812 C18.79858199 42.01214057 18.7491979 45.16211045 18.6875 48.3125 C19.3475 48.3125 20.0075 48.3125 20.6875 48.3125 C20.375 51.1875 20.375 51.1875 19.6875 54.3125 C16.19625983 56.63999345 14.79527749 56.81549316 10.6875 56.3125 C7.73874804 54.11318223 6.78854565 52.9273296 6.18579102 49.25976562 C6.18764404 48.09123047 6.18949707 46.92269531 6.19140625 45.71875 C6.19076172 44.44128906 6.19011719 43.16382813 6.18945312 41.84765625 C6.19984619 41.18523926 6.21023926 40.52282227 6.22094727 39.84033203 C6.24991402 37.81850102 6.24154935 35.79929328 6.22851562 33.77734375 C6.29943364 22.96507478 6.29943364 22.96507478 9.6875 19.3125 C9.1821875 18.97476563 8.676875 18.63703125 8.15625 18.2890625 C7.5065625 17.84304687 6.856875 17.39703125 6.1875 16.9375 C5.5378125 16.49664062 4.888125 16.05578125 4.21875 15.6015625 C3.7134375 15.17617187 3.208125 14.75078125 2.6875 14.3125 C2.6875 13.6525 2.6875 12.9925 2.6875 12.3125 C1.6975 11.9825 0.7075 11.6525 -0.3125 11.3125 C-3 9 -3 9 -5.3125 6.3125 C-5.3125 1.31915013 -4.98353007 0.47014435 0 0 Z " fill="#F7ECE6" transform="translate(56.3125,83.6875)"/>
<path d="M0 0 C0.495 1.485 0.495 1.485 1 3 C2.32 3 3.64 3 5 3 C5 3.66 5 4.32 5 5 C4.01 5.33 3.02 5.66 2 6 C1.67 6.99 1.34 7.98 1 9 C-1 10 -1 10 -9 10 C-9 16.93 -9 23.86 -9 31 C-8.01 31 -7.02 31 -6 31 C-5.505 33.475 -5.505 33.475 -5 36 C-5.66 36 -6.32 36 -7 36 C-7 36.66 -7 37.32 -7 38 C-6.34 38.33 -5.68 38.66 -5 39 C-7.41140704 42.11473409 -9.23396969 43.29074817 -13.0625 43.8125 C-17 44 -17 44 -20 43 C-19.67 42.01 -19.34 41.02 -19 40 C-18.67 40.33 -18.34 40.66 -18 41 C-16.00041636 41.04080783 -13.99954746 41.04254356 -12 41 C-10.68 38.69 -9.36 36.38 -8 34 C-8.66 34 -9.32 34 -10 34 C-10.029729 32.79670044 -10.029729 32.79670044 -10.06005859 31.5690918 C-10.15519495 27.94155823 -10.2649208 24.31460955 -10.375 20.6875 C-10.4059375 19.42486328 -10.436875 18.16222656 -10.46875 16.86132812 C-10.52675781 15.04858398 -10.52675781 15.04858398 -10.5859375 13.19921875 C-10.6173584 12.08377686 -10.6487793 10.96833496 -10.68115234 9.8190918 C-10.805249 6.79631214 -10.805249 6.79631214 -13 4 C-16.04195427 3.66659529 -16.04195427 3.66659529 -19 4 C-20.58272601 5.58272601 -20.34735747 7.38034003 -20.5625 9.5625 C-20.64628906 10.38878906 -20.73007813 11.21507813 -20.81640625 12.06640625 C-20.90728516 13.02353516 -20.90728516 13.02353516 -21 14 C-21.66 14 -22.32 14 -23 14 C-23 13.34 -23 12.68 -23 12 C-29.12623103 11.44531107 -33.70066937 11.40585599 -38.59375 15.421875 C-40.92377167 18.03667709 -41.89741406 20.69224218 -43 24 C-43.33 24 -43.66 24 -44 24 C-44 20.7 -44 17.4 -44 14 C-42.68 14 -41.36 14 -40 14 C-40 13.34 -40 12.68 -40 12 C-39.01 11.67 -38.02 11.34 -37 11 C-40.3 11.33 -43.6 11.66 -47 12 C-47.33 19.26 -47.66 26.52 -48 34 C-48.33 34 -48.66 34 -49 34 C-49.01981934 33.40985107 -49.03963867 32.81970215 -49.06005859 32.21166992 C-49.15534659 29.53649904 -49.26500939 26.86210502 -49.375 24.1875 C-49.4059375 23.25873047 -49.436875 22.32996094 -49.46875 21.37304688 C-49.50742188 20.48037109 -49.54609375 19.58769531 -49.5859375 18.66796875 C-49.63306885 17.43469849 -49.63306885 17.43469849 -49.68115234 16.17651367 C-49.88373622 13.71047063 -49.88373622 13.71047063 -52 11 C-55.04195427 10.66659529 -55.04195427 10.66659529 -58 11 C-59.58272601 12.58272601 -59.34735747 14.38034003 -59.5625 16.5625 C-59.64628906 17.38878906 -59.73007813 18.21507813 -59.81640625 19.06640625 C-59.87699219 19.70449219 -59.93757812 20.34257813 -60 21 C-62.76276177 20.47731534 -65.3260876 19.89130413 -68 19 C-68 14.38 -68 9.76 -68 5 C-68.99 4.67 -69.98 4.34 -71 4 C-68.58208596 2.79104298 -67.15503275 2.91338156 -64.45849609 2.97827148 C-63.51767181 2.99836777 -62.57684753 3.01846405 -61.60751343 3.03916931 C-60.58976837 3.06620438 -59.57202332 3.09323944 -58.5234375 3.12109375 C-57.48305328 3.14470474 -56.44266907 3.16831573 -55.37075806 3.19264221 C-52.03870356 3.26938576 -48.70687525 3.35336416 -45.375 3.4375 C-43.11980284 3.49070997 -40.86459455 3.54345044 -38.609375 3.59570312 C-33.07277587 3.72501532 -27.53634553 3.86027232 -22 4 C-22.495 2.515 -22.495 2.515 -23 1 C-22.2265625 1.0721875 -21.453125 1.144375 -20.65625 1.21875 C-9.88098827 2.83884313 -9.88098827 2.83884313 0 0 Z " fill="#CB2C2D" transform="translate(219,98)"/>
<path d="M0 0 C11.88 0 23.76 0 36 0 C35.01 0.99 34.02 1.98 33 3 C32.62508084 6.79278688 32.62410706 10.52590655 32.6015625 14.3359375 C31.86293007 18.83488047 30.22962448 19.93185674 27 23 C26.30271015 25.77559271 26.30271015 25.77559271 26.375 28.625 C26.3061839 33.64857521 26.3061839 33.64857521 24.51953125 35.69921875 C24.01808594 36.12847656 23.51664063 36.55773437 23 37 C22.28552357 39.10332891 22.28552357 39.10332891 22 41 C21.01 40.01 20.02 39.02 19 38 C19.66 37.34 20.32 36.68 21 36 C20.65126668 34.10544854 20.65126668 34.10544854 20 32 C19.89026457 30.37588164 19.8231014 28.74855916 19.7890625 27.12109375 C19.76070312 26.20005859 19.73234375 25.27902344 19.703125 24.33007812 C19.6509415 22.39798396 19.60670038 20.46565931 19.5703125 18.53320312 C19.539375 17.61345703 19.5084375 16.69371094 19.4765625 15.74609375 C19.45674316 14.90747803 19.43692383 14.0688623 19.41650391 13.20483398 C18.90960911 10.52150051 18.15955661 9.63007766 16 8 C13.13023717 7.16516674 13.13023717 7.16516674 10 8 C8.17478749 9.69846165 6.70186959 11.4809914 5.19921875 13.46875 C4.80347656 13.9740625 4.40773438 14.479375 4 15 C3.67 15 3.34 15 3 15 C2.92652344 13.75283203 2.92652344 13.75283203 2.8515625 12.48046875 C2.77679688 11.39378906 2.70203125 10.30710937 2.625 9.1875 C2.55539063 8.10855469 2.48578125 7.02960938 2.4140625 5.91796875 C2.18804267 2.81373814 2.18804267 2.81373814 0 0 Z " fill="#F30A0A" transform="translate(108,101)"/>
<path d="M0 0 C2.4437102 1.9018921 2.95150532 2.82840344 3.8125 5.875 C4.01313068 9.21884463 3.482349 11.03530199 2 14 C1.34 14 0.68 14 0 14 C0 12.02 0 10.04 0 8 C-3.11785113 8.64644661 -3.11785113 8.64644661 -4 11 C-4.0689472 12.37342831 -4.08467708 13.75002102 -4.0625 15.125 C-4.041875 16.40375 -4.02125 17.6825 -4 19 C-1.64632287 19.6878236 -1.64632287 19.6878236 1 20 C1.99 19.34 2.98 18.68 4 18 C3.67 20.31 3.34 22.62 3 25 C3.99 25 4.98 25 6 25 C5.67 26.32 5.34 27.64 5 29 C5 28.01 5 27.02 5 26 C3.02 26.66 1.04 27.32 -1 28 C-1 28.66 -1 29.32 -1 30 C-8.223219 30.48970976 -8.223219 30.48970976 -11.875 28.1875 C-15.8095195 24.13725934 -16.29479169 21.73020086 -16.3125 16.1875 C-16.32925781 14.98480469 -16.34601563 13.78210938 -16.36328125 12.54296875 C-15.89073813 7.93440305 -14.40512109 4.62129357 -11.375 1.125 C-7.74582098 -0.5940848 -3.93859093 -0.73984581 0 0 Z " fill="#FAF7F7" transform="translate(95,109)"/>
<path d="M0 0 C2.16932124 0.0641466 4.33671723 0.20099682 6.5 0.375 C7.6859375 0.46523437 8.871875 0.55546875 10.09375 0.6484375 C13 1 13 1 14 2 C15.41327947 2.15620555 16.8335459 2.25056173 18.25390625 2.31640625 C19.10791016 2.35830078 19.96191406 2.40019531 20.84179688 2.44335938 C21.73962891 2.48267578 22.63746094 2.52199219 23.5625 2.5625 C24.46419922 2.60568359 25.36589844 2.64886719 26.29492188 2.69335938 C28.52978485 2.79978142 30.76476308 2.90179988 33 3 C33.33 2.34 33.66 1.68 34 1 C35.32 1.99 36.64 2.98 38 4 C36.79174805 5.97558594 36.79174805 5.97558594 35 8 C32.82348633 8.45410156 32.82348633 8.45410156 30.33203125 8.390625 C29.43935547 8.37773438 28.54667969 8.36484375 27.62695312 8.3515625 C26.69818359 8.31804687 25.76941406 8.28453125 24.8125 8.25 C23.40194336 8.22292969 23.40194336 8.22292969 21.96289062 8.1953125 C19.64090111 8.1481655 17.3209631 8.08238231 15 8 C15 9.98 15 11.96 15 14 C14.34 14 13.68 14 13 14 C12.93941406 13.37351562 12.87882812 12.74703125 12.81640625 12.1015625 C12.73261719 11.28429687 12.64882813 10.46703125 12.5625 9.625 C12.48128906 8.81289062 12.40007813 8.00078125 12.31640625 7.1640625 C12.10909886 4.95727195 12.10909886 4.95727195 11 3 C8.36 3 5.72 3 3 3 C2.67 5.97 2.34 8.94 2 12 C1.34 12 0.68 12 0 12 C0 11.34 0 10.68 0 10 C-1.41750563 10.11509661 -2.83401169 10.24253658 -4.25 10.375 C-5.03890625 10.44460937 -5.8278125 10.51421875 -6.640625 10.5859375 C-9.13100103 11.02299025 -10.86188716 11.6577926 -13 13 C-14.16953416 15.42383077 -14.16953416 15.42383077 -15 18 C-15.66 18.99 -16.32 19.98 -17 21 C-17.25 14.375 -17.25 14.375 -15 11 C-14.01 11 -13.02 11 -12 11 C-12 10.34 -12 9.68 -12 9 C-15.63 9 -19.26 9 -23 9 C-23.33 9.66 -23.66 10.32 -24 11 C-24 8.03 -24 5.06 -24 2 C-21.11116225 1.03705408 -19.36132798 0.89492087 -16.3671875 0.9375 C-15.03494141 0.94910156 -15.03494141 0.94910156 -13.67578125 0.9609375 C-12.28939453 0.98027344 -12.28939453 0.98027344 -10.875 1 C-9.0391199 1.02539253 -7.20317318 1.04646519 -5.3671875 1.0625 C-4.14684814 1.07990234 -4.14684814 1.07990234 -2.90185547 1.09765625 C-0.98903895 1.21234421 -0.98903895 1.21234421 0 0 Z " fill="#DD171A" transform="translate(29,99)"/>
<path d="M0 0 C3.0625 0.375 3.0625 0.375 4.7355957 2.10058594 C6.26023863 4.71393893 6.41315811 6.14077824 6.35546875 9.140625 C6.34580078 10.03007813 6.33613281 10.91953125 6.32617188 11.8359375 C6.30103516 12.75632812 6.27589844 13.67671875 6.25 14.625 C6.23646484 15.56085938 6.22292969 16.49671875 6.20898438 17.4609375 C6.17369954 19.76621327 6.12440281 22.0703106 6.0625 24.375 C7.0525 24.375 8.0425 24.375 9.0625 24.375 C8.74092796 27.34954134 8.44110258 28.96835278 6.375 31.1875 C3.38378571 32.72352896 1.37986198 32.80769939 -1.9375 32.375 C-4.35880331 28.74304504 -4.14772785 26.99150652 -4.0625 22.6875 C-4.03542969 20.91826172 -4.03542969 20.91826172 -4.0078125 19.11328125 C-3.98460937 18.20964844 -3.96140625 17.30601563 -3.9375 16.375 C-4.5975 16.375 -5.2575 16.375 -5.9375 16.375 C-5.82378503 14.08274565 -5.69619036 11.79117612 -5.5625 9.5 C-5.49289063 8.22382812 -5.42328125 6.94765625 -5.3515625 5.6328125 C-4.81735612 1.42971699 -4.22997869 0.53999728 0 0 Z " fill="#FAF8F7" transform="translate(163.9375,107.625)"/>
<path d="M0 0 C0.66 0 1.32 0 2 0 C2 1.32 2 2.64 2 4 C2.7425 3.525625 3.485 3.05125 4.25 2.5625 C6.64178568 1.20353086 8.36673854 0.57954259 11 0 C11.14256667 9.39355936 10.72492332 18.64072209 10 28 C10.66 28 11.32 28 12 28 C12 28.66 12 29.32 12 30 C11.01 30 10.02 30 9 30 C9 30.66 9 31.32 9 32 C2.25 31.25 2.25 31.25 0 29 C-0.22705078 26.11083984 -0.22705078 26.11083984 -0.1953125 22.4609375 C-0.18564453 20.50800781 -0.18564453 20.50800781 -0.17578125 18.515625 C-0.15906929 17.13541405 -0.14213939 15.75520571 -0.125 14.375 C-0.11497006 12.98698548 -0.10584423 11.59896411 -0.09765625 10.2109375 C-0.07401863 6.80711974 -0.04106867 3.40364494 0 0 Z " fill="#F9F2F0" transform="translate(63,107)"/>
<path d="M0 0 C-1.98 0.99 -3.96 1.98 -6 3 C-6.0093457 3.68102783 -6.01869141 4.36205566 -6.02832031 5.0637207 C-6.08198131 8.14738647 -6.16563551 11.22952794 -6.25 14.3125 C-6.27126953 15.9202832 -6.27126953 15.9202832 -6.29296875 17.56054688 C-6.32519531 18.58857422 -6.35742188 19.61660156 -6.390625 20.67578125 C-6.4220459 22.0975769 -6.4220459 22.0975769 -6.45410156 23.5480957 C-7 26 -7 26 -8.87011719 27.84838867 C-11 29 -11 29 -13.6875 28.75 C-16 28 -16 28 -17 27 C-17.36090226 19.54135338 -17.36090226 19.54135338 -15 16 C-14.01 16 -13.02 16 -12 16 C-12 17.98 -12 19.96 -12 22 C-11.34 21.67 -10.68 21.34 -10 21 C-9.09062826 17.36251305 -8.67349086 14.90994351 -9.953125 11.34375 C-12.59990508 8.31308578 -14.32304355 8.25992037 -18.20898438 7.8984375 C-18.98564453 7.84945312 -19.76230469 7.80046875 -20.5625 7.75 C-28.87240356 7.06379822 -28.87240356 7.06379822 -31 6 C-31 4.35 -31 2.7 -31 1 C-30.35973877 0.97494385 -29.71947754 0.9498877 -29.05981445 0.92407227 C-26.14386274 0.8076454 -23.2281971 0.68513133 -20.3125 0.5625 C-19.30509766 0.52318359 -18.29769531 0.48386719 -17.25976562 0.44335938 C-16.28330078 0.40146484 -15.30683594 0.35957031 -14.30078125 0.31640625 C-13.40528564 0.27974854 -12.50979004 0.24309082 -11.5871582 0.20532227 C-8.96829784 0.05015702 -8.96829784 0.05015702 -6.31323242 -0.54711914 C-3.83047098 -1.03319011 -2.37487147 -0.79162382 0 0 Z " fill="#C02A27" transform="translate(107,101)"/>
<path d="M0 0 C11.88 0 23.76 0 36 0 C35.01 0.99 34.02 1.98 33 3 C32.62355152 5.62939205 32.39866913 8.05072472 32.3125 10.6875 C32.27833984 11.38939453 32.24417969 12.09128906 32.20898438 12.81445312 C32.12670053 14.54241387 32.0616676 16.27118072 32 18 C31.67 18 31.34 18 31 18 C30.67 14.37 30.34 10.74 30 7 C26.37 7.33 22.74 7.66 19 8 C19.66 8.66 20.32 9.32 21 10 C20.01 10 19.02 10 18 10 C17.34 9.34 16.68 8.68 16 8 C13.1724011 7.24755499 13.1724011 7.24755499 10 8 C8.16924282 9.69545872 6.70297027 11.47953539 5.19921875 13.46875 C4.80347656 13.9740625 4.40773438 14.479375 4 15 C3.67 15 3.34 15 3 15 C2.92652344 13.75283203 2.92652344 13.75283203 2.8515625 12.48046875 C2.77679688 11.39378906 2.70203125 10.30710937 2.625 9.1875 C2.55539063 8.10855469 2.48578125 7.02960938 2.4140625 5.91796875 C2.18804267 2.81373814 2.18804267 2.81373814 0 0 Z " fill="#CC4145" transform="translate(108,101)"/>
<path d="M0 0 C1.216875 0.04125 2.43375 0.0825 3.6875 0.125 C3.0275 0.785 2.3675 1.445 1.6875 2.125 C0.6975 2.125 -0.2925 2.125 -1.3125 2.125 C-1.3125 2.785 -1.3125 3.445 -1.3125 4.125 C-2.6325 4.125 -3.9525 4.125 -5.3125 4.125 C-5.22487 6.98052944 -5.11790993 9.83318989 -5 12.6875 C-4.97744141 13.48736328 -4.95488281 14.28722656 -4.93164062 15.11132812 C-4.69186695 20.45174181 -3.87217806 24.40084357 -1.3125 29.125 C1.71294334 31.14196222 2.29817382 31.38311096 5.6875 31.3125 C6.368125 31.30605469 7.04875 31.29960937 7.75 31.29296875 C9.90508209 31.18197746 9.90508209 31.18197746 12.6875 30.125 C12.3575 32.105 12.0275 34.085 11.6875 36.125 C10.3675 36.125 9.0475 36.125 7.6875 36.125 C7.6875 35.465 7.6875 34.805 7.6875 34.125 C5.93843341 33.92898392 4.18818154 33.74352597 2.4375 33.5625 C1.46296875 33.45808594 0.4884375 33.35367188 -0.515625 33.24609375 C-3.0756352 33.13525532 -4.89398159 33.34761908 -7.3125 34.125 C-7.3125 33.465 -7.3125 32.805 -7.3125 32.125 C-8.3025 32.62 -8.3025 32.62 -9.3125 33.125 C-11.9848621 33.25915472 -14.63500488 33.16818541 -17.3125 33.125 C-17.3125 32.795 -17.3125 32.465 -17.3125 32.125 C-16.219375 31.91875 -15.12625 31.7125 -14 31.5 C-10.0839341 30.46836062 -10.0839341 30.46836062 -8.375 27 C-8.024375 26.05125 -7.67375 25.1025 -7.3125 24.125 C-7.9725 24.125 -8.6325 24.125 -9.3125 24.125 C-9.3125 16.865 -9.3125 9.605 -9.3125 2.125 C-3.6875 -0.125 -3.6875 -0.125 0 0 Z " fill="#E21A1C" transform="translate(180.3125,107.875)"/>
<path d="M0 0 C6.6 0.33 13.2 0.66 20 1 C20.09209131 5.03922718 20.17164044 9.07576353 20.21972656 13.11547852 C20.2397799 14.48800023 20.26703028 15.86043717 20.30175781 17.23266602 C20.35054552 19.21072044 20.37088876 21.18941119 20.390625 23.16796875 C20.41157227 24.35672607 20.43251953 25.5454834 20.45410156 26.77026367 C19.91582228 30.59870275 18.63285462 32.23732469 16 35 C14.68 34.67 13.36 34.34 12 34 C12.9590625 33.4121875 12.9590625 33.4121875 13.9375 32.8125 C16.43778819 30.61527704 16.64950425 29.24208567 17 26 C16.34 26 15.68 26 15 26 C14.97421875 24.74703125 14.9484375 23.4940625 14.921875 22.203125 C14.86558831 20.55204877 14.8082411 18.90100845 14.75 17.25 C14.73582031 16.425 14.72164062 15.6 14.70703125 14.75 C14.55066363 10.87208303 14.4517828 8.64139614 12.17578125 5.41015625 C9.93259027 3.65391444 9.93259027 3.65391444 6.4375 4.1875 C3.04557934 4.93506984 3.04557934 4.93506984 0 6 C0 4.02 0 2.04 0 0 Z " fill="#E30E10" transform="translate(43,106)"/>
<path d="M0 0 C2.29013653 3.4352048 2.17842973 4.985331 2 9 C5.3 9.33 8.6 9.66 12 10 C10.32427149 13.35145703 9.45551853 14.54448147 7 17 C5.09785684 22.70642947 4.39260248 30.7571036 7.1171875 36.25390625 C8.58430936 38.06105099 8.58430936 38.06105099 11 40 C8.03 39.67 5.06 39.34 2 39 C2.33 37.35 2.66 35.7 3 34 C2.34 34 1.68 34 1 34 C0.67 24.43 0.34 14.86 0 5 C-0.99 4.67 -1.98 4.34 -3 4 C-2.01 2.68 -1.02 1.36 0 0 Z " fill="#CA2B2F" transform="translate(74,98)"/>
<path d="M0 0 C1.921875 0.91015625 1.921875 0.91015625 2.96875 2.9765625 C3.20078125 3.80027344 3.4328125 4.62398438 3.671875 5.47265625 C3.91421875 6.29894531 4.1565625 7.12523438 4.40625 7.9765625 C4.57640625 8.61464844 4.7465625 9.25273438 4.921875 9.91015625 C9.79873361 8.5554733 11.40779881 6.19339716 13.921875 1.91015625 C15.25519595 4.57679815 14.59289533 6.07695928 13.921875 8.91015625 C12.601875 9.24015625 11.281875 9.57015625 9.921875 9.91015625 C10.251875 10.90015625 10.581875 11.89015625 10.921875 12.91015625 C9.931875 12.91015625 8.941875 12.91015625 7.921875 12.91015625 C7.921875 14.56015625 7.921875 16.21015625 7.921875 17.91015625 C7.261875 17.91015625 6.601875 17.91015625 5.921875 17.91015625 C5.591875 18.90015625 5.261875 19.89015625 4.921875 20.91015625 C3.931875 20.58015625 2.941875 20.25015625 1.921875 19.91015625 C2.581875 17.93015625 3.241875 15.95015625 3.921875 13.91015625 C2.5296875 13.97203125 2.5296875 13.97203125 1.109375 14.03515625 C-2.078125 13.91015625 -2.078125 13.91015625 -5.078125 11.91015625 C-5.4765625 9.59765625 -5.4765625 9.59765625 -5.453125 6.91015625 C-5.46085937 6.02328125 -5.46859375 5.13640625 -5.4765625 4.22265625 C-5.34507813 3.45953125 -5.21359375 2.69640625 -5.078125 1.91015625 C-2.078125 -0.08984375 -2.078125 -0.08984375 0 0 Z " fill="#F20D0C" transform="translate(29.078125,118.08984375)"/>
<path d="M0 0 C13.86 0 27.72 0 42 0 C42 1.32 42 2.64 42 4 C27.81 4 13.62 4 -1 4 C-0.67 2.68 -0.34 1.36 0 0 Z " fill="#FAE2DD" transform="translate(154,103)"/>
<path d="M0 0 C0.66 0 1.32 0 2 0 C2 2.64 2 5.28 2 8 C1.34 8 0.68 8 0 8 C0 7.34 0 6.68 0 6 C-6.12623103 5.44531107 -10.70066937 5.40585599 -15.59375 9.421875 C-17.92377167 12.03667709 -18.89741406 14.69224218 -20 18 C-20.33 18 -20.66 18 -21 18 C-21 14.7 -21 11.4 -21 8 C-19.68 8 -18.36 8 -17 8 C-17 7.34 -17 6.68 -17 6 C-16.01 5.67 -15.02 5.34 -14 5 C-17.3 5.33 -20.6 5.66 -24 6 C-24.33 13.26 -24.66 20.52 -25 28 C-25.33 28 -25.66 28 -26 28 C-26.01981934 27.40985107 -26.03963867 26.81970215 -26.06005859 26.21166992 C-26.15534659 23.53649904 -26.26500939 20.86210502 -26.375 18.1875 C-26.4059375 17.25873047 -26.436875 16.32996094 -26.46875 15.37304688 C-26.50742188 14.48037109 -26.54609375 13.58769531 -26.5859375 12.66796875 C-26.63306885 11.43469849 -26.63306885 11.43469849 -26.68115234 10.17651367 C-26.88373622 7.71047063 -26.88373622 7.71047063 -29 5 C-32.04195427 4.66659529 -32.04195427 4.66659529 -35 5 C-36.58272601 6.58272601 -36.34735747 8.38034003 -36.5625 10.5625 C-36.64628906 11.38878906 -36.73007813 12.21507813 -36.81640625 13.06640625 C-36.87699219 13.70449219 -36.93757812 14.34257813 -37 15 C-37.99 14.67 -38.98 14.34 -40 14 C-39.34 14 -38.68 14 -38 14 C-38.33 10.7 -38.66 7.4 -39 4 C-40.32 3.67 -41.64 3.34 -43 3 C-28.81 3 -14.62 3 0 3 C0 2.01 0 1.02 0 0 Z " fill="#D82121" transform="translate(196,104)"/>
<path d="M0 0 C0.33 0 0.66 0 1 0 C1.33 2.31 1.66 4.62 2 7 C4.35367713 7.6878236 4.35367713 7.6878236 7 8 C7.99 7.34 8.98 6.68 10 6 C9.67 8.31 9.34 10.62 9 13 C9.99 13 10.98 13 12 13 C11.67 14.32 11.34 15.64 11 17 C11 16.01 11 15.02 11 14 C9.02 14.66 7.04 15.32 5 16 C5 16.66 5 17.32 5 18 C-2.20800421 18.48867825 -2.20800421 18.48867825 -5.9375 16.1875 C-8 14 -8 14 -9 11 C-7.88625 10.484375 -6.7725 9.96875 -5.625 9.4375 C-3.40405925 8.19467053 -2.23514102 7.47129124 -1.08984375 5.17578125 C-0.47406597 3.04770412 -0.47406597 3.04770412 0 0 Z " fill="#F7DFDC" transform="translate(89,121)"/>
<path d="M0 0 C0.99 0 1.98 0 3 0 C2.45276317 3.37462715 1.9451 5.08235 0 8 C0.48895752 8.36714111 0.97791504 8.73428223 1.48168945 9.11254883 C3.65504329 11.81430128 3.3413141 13.76669863 3.29296875 17.19921875 C3.28330078 18.40771484 3.27363281 19.61621094 3.26367188 20.86132812 C3.23853516 22.12396484 3.21339844 23.38660156 3.1875 24.6875 C3.17396484 25.96173828 3.16042969 27.23597656 3.14648438 28.54882812 C3.11108199 31.69964057 3.0616979 34.84961045 3 38 C3.66 38 4.32 38 5 38 C4.6875 40.875 4.6875 40.875 4 44 C0.5647952 46.29013653 -0.985331 46.17842973 -5 46 C-5.33 45.34 -5.66 44.68 -6 44 C-4.02 44.33 -2.04 44.66 0 45 C0 44.34 0 43.68 0 43 C0.99 43 1.98 43 3 43 C3 42.34 3 41.68 3 41 C2.34 41 1.68 41 1 41 C-0.43587547 35.11592292 0.32017968 29.56814592 0.9375 23.625 C1.03740234 22.60277344 1.13730469 21.58054687 1.24023438 20.52734375 C1.48653214 18.01745227 1.73998409 15.50850113 2 13 C1.22269531 13.48082031 0.44539063 13.96164063 -0.35546875 14.45703125 C-2.67389838 15.80973392 -4.39432107 16.51746687 -7 17 C-7.625 14.125 -7.625 14.125 -8 11 C-7.34 10.34 -6.68 9.68 -6 9 C-6.66 8.34 -7.32 7.68 -8 7 C-6.02 7 -4.04 7 -2 7 C-2 6.34 -2 5.68 -2 5 C-1.34 5 -0.68 5 0 5 C-0.33 4.01 -0.66 3.02 -1 2 C-0.67 1.34 -0.34 0.68 0 0 Z " fill="#F9DDDE" transform="translate(72,94)"/>
<path d="M0 0 C0 6.27 0 12.54 0 19 C0.66 19 1.32 19 2 19 C2 19.66 2 20.32 2 21 C-1.75 22.125 -1.75 22.125 -4 21 C-3.01 17.535 -3.01 17.535 -2 14 C-3.98 14.33 -5.96 14.66 -8 15 C-9.84891267 11.30217467 -9.46801175 7.03660136 -9 3 C-6.14139409 -1.5525946 -5.49586239 -1.09917248 0 0 Z " fill="#E51211" transform="translate(197,117)"/>
<path d="M0 0 C3.63 0 7.26 0 11 0 C10.67 1.65 10.34 3.3 10 5 C7.36 5 4.72 5 2 5 C2 11.93 2 18.86 2 26 C2.99 26 3.98 26 5 26 C5.33 27.65 5.66 29.3 6 31 C5.34 31 4.68 31 4 31 C4 31.66 4 32.32 4 33 C4.66 33.33 5.32 33.66 6 34 C3.58859296 37.11473409 1.76603031 38.29074817 -2.0625 38.8125 C-6 39 -6 39 -9 38 C-8.67 37.01 -8.34 36.02 -8 35 C-7.67 35.33 -7.34 35.66 -7 36 C-5.00041636 36.04080783 -2.99954746 36.04254356 -1 36 C0.32 33.69 1.64 31.38 3 29 C2.34 29 1.68 29 1 29 C0.67 19.43 0.34 9.86 0 0 Z " fill="#D52422" transform="translate(208,103)"/>
<path d="M0 0 C0.99 0 1.98 0 3 0 C3.03738281 0.95261719 3.07476562 1.90523438 3.11328125 2.88671875 C3.17902344 4.14097656 3.24476562 5.39523438 3.3125 6.6875 C3.37050781 7.92886719 3.42851563 9.17023438 3.48828125 10.44921875 C4.01567767 14.10878625 4.71834678 16.11564593 7 19 C10.0957107 19.89207179 10.0957107 19.89207179 13 20 C13 20.33 13 20.66 13 21 C10.69 21.33 8.38 21.66 6 22 C6 21.34 6 20.68 6 20 C4.35 19.67 2.7 19.34 1 19 C0.67 19.99 0.34 20.98 0 22 C-2.44418663 19.47370891 -2.98859011 18.26150239 -3.14453125 14.6875 C-3.03496094 13.470625 -2.92539063 12.25375 -2.8125 11 C-2.71582031 9.783125 -2.61914062 8.56625 -2.51953125 7.3125 C-2.06099908 4.38892649 -1.51814277 2.49900045 0 0 Z " fill="#E03536" transform="translate(113,120)"/>
<path d="M0 0 C-0.11487748 1.58409994 -0.24234508 3.16728963 -0.375 4.75 C-0.44460937 5.63171875 -0.51421875 6.5134375 -0.5859375 7.421875 C-0.99850055 9.99066382 -1.71160957 11.75841015 -3 14 C-3.66 14 -4.32 14 -5 14 C-5.66 15.32 -6.32 16.64 -7 18 C-7.33 18 -7.66 18 -8 18 C-8.27565727 15.39623726 -8.52127265 12.79544032 -8.75 10.1875 C-8.83121094 9.44951172 -8.91242188 8.71152344 -8.99609375 7.95117188 C-9.171875 5.79296875 -9.171875 5.79296875 -9 2 C-6.03883432 -1.31854775 -4.14506944 -1.266549 0 0 Z " fill="#F9FBFA" transform="translate(149,102)"/>
<path d="M0 0 C0.33 0 0.66 0 1 0 C1.33 5.61 1.66 11.22 2 17 C2.33 14.03 2.66 11.06 3 8 C3.33 8.66 3.66 9.32 4 10 C4.66 10 5.32 10 6 10 C6.33 7.69 6.66 5.38 7 3 C7.66 3.66 8.32 4.32 9 5 C9.66 3.68 10.32 2.36 11 1 C11.25 3.6875 11.25 3.6875 11 7 C10.360625 7.721875 9.72125 8.44375 9.0625 9.1875 C6.32125034 12.92556772 6.47690659 15.93283458 6.37109375 20.4765625 C5.93891638 23.4153686 5.19770876 24.11382212 3 26 C2.28552357 28.10332891 2.28552357 28.10332891 2 30 C1.01 29.01 0.02 28.02 -1 27 C-0.34 26.34 0.32 25.68 1 25 C0.64102896 23.11117794 0.64102896 23.11117794 0 21 C-0.07911543 19.34010718 -0.10778885 17.6773713 -0.09765625 16.015625 C-0.09443359 15.08105469 -0.09121094 14.14648438 -0.08789062 13.18359375 C-0.07951172 12.21550781 -0.07113281 11.24742188 -0.0625 10.25 C-0.05798828 9.26644531 -0.05347656 8.28289062 -0.04882812 7.26953125 C-0.03706483 4.84629209 -0.02062684 2.42317727 0 0 Z " fill="#E12D2C" transform="translate(128,112)"/>
<path d="M0 0 C8.58 0 17.16 0 26 0 C26 1.32 26 2.64 26 4 C17.75 4 9.5 4 1 4 C0.67 2.68 0.34 1.36 0 0 Z " fill="#FAE2DD" transform="translate(112,103)"/>
<path d="M0 0 C0.125 5.75 0.125 5.75 -1 8 C-0.34 8 0.32 8 1 8 C1.66 7.34 2.32 6.68 3 6 C3 8.64 3 11.28 3 14 C2.34 14 1.68 14 1 14 C1 14.66 1 15.32 1 16 C0.01 16 -0.98 16 -2 16 C-2 15.34 -2 14.68 -2 14 C-2.66 14 -3.32 14 -4 14 C-3.67 15.32 -3.34 16.64 -3 18 C-4.32 18.33 -5.64 18.66 -7 19 C-8 16 -8 16 -7 13 C-6.34 13 -5.68 13 -5 13 C-5 9.04 -5 5.08 -5 1 C-3 0 -3 0 0 0 Z " fill="#F7FBFA" transform="translate(147,120)"/>
<path d="M0 0 C0.66 0.33 1.32 0.66 2 1 C2 6.94 2 12.88 2 19 C3.98 19.33 5.96 19.66 8 20 C8 20.33 8 20.66 8 21 C3.87018637 21.40488369 1.63807013 21.39370285 -1.9375 19.1875 C-4.93520549 14.55468243 -4.91062667 10.37511497 -4 5 C-2 1.8125 -2 1.8125 0 0 Z " fill="#F8DDDC" transform="translate(138,119)"/>
<path d="M0 0 C7.50769231 -0.36923077 7.50769231 -0.36923077 10 1.5 C10.495 2.2425 10.495 2.2425 11 3 C9.02 3 7.04 3 5 3 C5.95865509 5.33075929 5.95865509 5.33075929 9 7 C6.36 7.66 3.72 8.32 1 9 C1 8.01 1 7.02 1 6 C0.01 6 -0.98 6 -2 6 C-2.33 6.66 -2.66 7.32 -3 8 C-2.37240135 5.07120629 -1.41377341 2.63904371 0 0 Z M0 9 C0.99 9.33 1.98 9.66 3 10 C3 12.64 3 15.28 3 18 C1.33333333 18 -0.33333333 18 -2 18 C-2 15.36 -2 12.72 -2 10 C-1.34 9.67 -0.68 9.34 0 9 Z " fill="#F6FAF8" transform="translate(20,110)"/>
<path d="M0 0 C0.33 0.66 0.66 1.32 1 2 C3.3140622 2.73075648 5.64828869 3.40138258 8 4 C8 5.65 8 7.3 8 9 C7.34 9 6.68 9 6 9 C6 9.66 6 10.32 6 11 C-0.4 11.36923077 -0.4 11.36923077 -3.4375 9.5 C-3.953125 9.005 -4.46875 8.51 -5 8 C-4.64950425 4.75791433 -4.43778819 3.38472296 -1.9375 1.1875 C-1.298125 0.795625 -0.65875 0.40375 0 0 Z " fill="#F6F9F9" transform="translate(64,90)"/>
<path d="M0 0 C4.15612825 3.39728461 7.70599337 6.72999141 11 11 C11.66 11.33 12.32 11.66 13 12 C13 12.99 13 13.98 13 15 C6.73 15 0.46 15 -6 15 C-6 14.34 -6 13.68 -6 13 C0.93 13.495 0.93 13.495 8 14 C8 13.34 8 12.68 8 12 C4.7 12 1.4 12 -2 12 C-0.68 11.34 0.64 10.68 2 10 C2 9.34 2 8.68 2 8 C2.66 7.67 3.32 7.34 4 7 C2.35 6.01 0.7 5.02 -1 4 C-0.67 2.68 -0.34 1.36 0 0 Z " fill="#FC0D0F" transform="translate(49,87)"/>
<path d="M0 0 C1.216875 0.04125 2.43375 0.0825 3.6875 0.125 C3.0275 0.785 2.3675 1.445 1.6875 2.125 C0.6975 2.125 -0.2925 2.125 -1.3125 2.125 C-1.3125 2.785 -1.3125 3.445 -1.3125 4.125 C-2.6325 4.125 -3.9525 4.125 -5.3125 4.125 C-5.3125 7.425 -5.3125 10.725 -5.3125 14.125 C-5.6425 14.125 -5.9725 14.125 -6.3125 14.125 C-6.36148438 14.76308594 -6.41046875 15.40117188 -6.4609375 16.05859375 C-6.53570312 16.88488281 -6.61046875 17.71117188 -6.6875 18.5625 C-6.79191406 19.79806641 -6.79191406 19.79806641 -6.8984375 21.05859375 C-7.03507813 21.74050781 -7.17171875 22.42242187 -7.3125 23.125 C-7.9725 23.455 -8.6325 23.785 -9.3125 24.125 C-9.3125 16.865 -9.3125 9.605 -9.3125 2.125 C-3.6875 -0.125 -3.6875 -0.125 0 0 Z " fill="#F5090A" transform="translate(180.3125,107.875)"/>
<path d="M0 0 C7.26 0 14.52 0 22 0 C22 1.32 22 2.64 22 4 C14.41 4 6.82 4 -1 4 C-0.67 2.68 -0.34 1.36 0 0 Z " fill="#FADEDB" transform="translate(7,103)"/>
<path d="M0 0 C6.93 0 13.86 0 21 0 C21 1.32 21 2.64 21 4 C13.74 4 6.48 4 -1 4 C-0.67 2.68 -0.34 1.36 0 0 Z " fill="#F8DFD7" transform="translate(77,103)"/>
<path d="M0 0 C0.99 0 1.98 0 3 0 C3 1.98 3 3.96 3 6 C4.32 5.01 5.64 4.02 7 3 C7.36174071 9.39075249 7.36174071 9.39075249 5.8125 12 C4 13 4 13 1.375 12.75 C-1 12 -1 12 -2 11 C-2.36090226 3.54135338 -2.36090226 3.54135338 0 0 Z " fill="#D51917" transform="translate(92,117)"/>
<path d="M0 0 C6 2 6 2 8 3 C8.34375 5.3984375 8.34375 5.3984375 8.5 8.375 C8.70460671 12.25229715 8.79475989 13.69213984 11 17 C7.74488211 16.43877278 6.00159929 15.66879905 4 13 C3.3125 10.3125 3.3125 10.3125 3 8 C2.34 9.98 1.68 11.96 1 14 C0.67 14 0.34 14 0 14 C0 9.38 0 4.76 0 0 Z " fill="#D62E2E" transform="translate(151,122)"/>
<path d="M0 0 C0.33 0.66 0.66 1.32 1 2 C1.66 2.33 2.32 2.66 3 3 C1.02 3.99 1.02 3.99 -1 5 C-0.01 5.33 0.98 5.66 2 6 C1.67 7.32 1.34 8.64 1 10 C0.34 10 -0.32 10 -1 10 C-1 12.64 -1 15.28 -1 18 C-3 15 -3 15 -5 11 C-5.33 14.63 -5.66 18.26 -6 22 C-6.33 22 -6.66 22 -7 22 C-7.44384648 14.60255869 -7.6882455 8.11510282 -3 2 C-2.01 1.34 -1.02 0.68 0 0 Z " fill="#F9E6E4" transform="translate(19,110)"/>
<path d="M0 0 C3.3 0.33 6.6 0.66 10 1 C8 5 8 5 5.4375 7.1875 C2.16509782 10.96334867 2.11648794 14.1392761 2 19 C-0.44989101 15.25764681 -0.23086143 11.55774581 -0.125 7.25 C-0.11597656 6.55261719 -0.10695313 5.85523437 -0.09765625 5.13671875 C-0.07419888 3.42433042 -0.03833104 1.71211996 0 0 Z " fill="#EE0A07" transform="translate(76,107)"/>
<path d="M0 0 C5.94 0 11.88 0 18 0 C18.33 1.32 18.66 2.64 19 4 C12.73 4 6.46 4 0 4 C0 2.68 0 1.36 0 0 Z " fill="#FADDD8" transform="translate(44,103)"/>
<path d="M0 0 C0.33 0.99 0.66 1.98 1 3 C2.32 3 3.64 3 5 3 C5 3.66 5 4.32 5 5 C4.01 5.33 3.02 5.66 2 6 C1.01 7.485 1.01 7.485 0 9 C0 7.68 0 6.36 0 5 C-0.85464844 5.01160156 -1.70929688 5.02320312 -2.58984375 5.03515625 C-3.69457031 5.04417969 -4.79929688 5.05320312 -5.9375 5.0625 C-7.03964844 5.07410156 -8.14179688 5.08570312 -9.27734375 5.09765625 C-12 5 -12 5 -13 4 C-16.94836905 3.7367754 -19.60379269 3.91002627 -23 6 C-23 4.35 -23 2.7 -23 1 C-22.2265625 1.0721875 -21.453125 1.144375 -20.65625 1.21875 C-9.88098827 2.83884313 -9.88098827 2.83884313 0 0 Z " fill="#E51311" transform="translate(219,98)"/>
<path d="M0 0 C2 2 2 2 2.125 4.625 C2.08375 5.40875 2.0425 6.1925 2 7 C1.34 7 0.68 7 0 7 C0 6.34 0 5.68 0 5 C-1.41750563 5.11509661 -2.83401169 5.24253658 -4.25 5.375 C-5.03890625 5.44460937 -5.8278125 5.51421875 -6.640625 5.5859375 C-9.13100103 6.02299025 -10.86188716 6.6577926 -13 8 C-14.16953416 10.42383077 -14.16953416 10.42383077 -15 13 C-15.99 14.485 -15.99 14.485 -17 16 C-17.25 9.375 -17.25 9.375 -15 6 C-14.01 6 -13.02 6 -12 6 C-12 5.34 -12 4.68 -12 4 C-14.97 4 -17.94 4 -21 4 C-21 3.67 -21 3.34 -21 3 C-14.07 3 -7.14 3 0 3 C0 2.01 0 1.02 0 0 Z " fill="#D81F1C" transform="translate(29,104)"/>
<path d="M0 0 C0.66 0 1.32 0 2 0 C2.04898438 1.19238281 2.09796875 2.38476562 2.1484375 3.61328125 C2.22347604 5.17971068 2.2990234 6.74611579 2.375 8.3125 C2.42140625 9.49102539 2.42140625 9.49102539 2.46875 10.69335938 C2.50742187 11.45068359 2.54609375 12.20800781 2.5859375 12.98828125 C2.6173584 13.68477783 2.6487793 14.38127441 2.68115234 15.09887695 C2.92118253 17.32532739 2.92118253 17.32532739 5 20 C6.299375 20.7734375 6.299375 20.7734375 7.625 21.5625 C8.40875 22.036875 9.1925 22.51125 10 23 C10 23.66 10 24.32 10 25 C7.03 25 4.06 25 1 25 C0.24636948 21.64908229 -0.11979937 18.56890188 -0.09765625 15.13671875 C-0.09443359 14.25048828 -0.09121094 13.36425781 -0.08789062 12.45117188 C-0.07951172 11.53916016 -0.07113281 10.62714844 -0.0625 9.6875 C-0.05798828 8.75615234 -0.05347656 7.82480469 -0.04882812 6.86523438 C-0.03709234 4.57675627 -0.02067363 2.28841192 0 0 Z " fill="#E41516" transform="translate(44,119)"/>
<path d="M0 0 C6.15234375 -0.09765625 6.15234375 -0.09765625 8 0 C8.33 0.33 8.66 0.66 9 1 C10.41327947 1.15620555 11.8335459 1.25056173 13.25390625 1.31640625 C14.10791016 1.35830078 14.96191406 1.40019531 15.84179688 1.44335938 C16.73962891 1.48267578 17.63746094 1.52199219 18.5625 1.5625 C19.46419922 1.60568359 20.36589844 1.64886719 21.29492188 1.69335938 C23.52978485 1.79978142 25.76476308 1.90179988 28 2 C28.33 1.34 28.66 0.68 29 0 C30.32 0.99 31.64 1.98 33 3 C31.68 4.32 30.36 5.64 29 7 C28.67 6.01 28.34 5.02 28 4 C22.06 3.67 16.12 3.34 10 3 C10 6.3 10 9.6 10 13 C9.34 13 8.68 13 8 13 C7.93941406 12.37351562 7.87882812 11.74703125 7.81640625 11.1015625 C7.73261719 10.28429687 7.64882813 9.46703125 7.5625 8.625 C7.48128906 7.81289062 7.40007813 7.00078125 7.31640625 6.1640625 C7.10909886 3.95727195 7.10909886 3.95727195 6 2 C2.97065509 1.34227572 2.97065509 1.34227572 0 1 C0 0.67 0 0.34 0 0 Z " fill="#C62329" transform="translate(34,100)"/>
<path d="M0 0 C0.33 0 0.66 0 1 0 C1.03738281 0.59167969 1.07476563 1.18335937 1.11328125 1.79296875 C1.52783246 6.77571178 2.37252751 9.70049956 5 14 C4.6875 16.8125 4.6875 16.8125 4 19 C1.69 19.66 -0.62 20.32 -3 21 C-2.814375 20.38125 -2.62875 19.7625 -2.4375 19.125 C-1.76313824 16.95839822 -1.76313824 16.95839822 -3 15 C-2.34 15 -1.68 15 -1 15 C-0.67 10.05 -0.34 5.1 0 0 Z " fill="#F21417" transform="translate(11,123)"/>
<path d="M0 0 C8.58 0 17.16 0 26 0 C26 0.33 26 0.66 26 1 C22.37 1.33 18.74 1.66 15 2 C15.66 2.66 16.32 3.32 17 4 C16.01 4 15.02 4 14 4 C13.34 3.34 12.68 2.68 12 2 C8.96164002 1.51662455 6.91008395 1.40906314 4.2734375 3.12109375 C2.79784829 4.35541363 1.39307823 5.67325883 0 7 C0 4.69 0 2.38 0 0 Z " fill="#C02A2B" transform="translate(112,107)"/>
<path d="M0 0 C-0.33 0.99 -0.66 1.98 -1 3 C-2.98 2.34 -4.96 1.68 -7 1 C-7 2.32 -7 3.64 -7 5 C-6.34 5 -5.68 5 -5 5 C-5.33 6.32 -5.66 7.64 -6 9 C-6.66 9 -7.32 9 -8 9 C-8 9.66 -8 10.32 -8 11 C-8.66 11 -9.32 11 -10 11 C-9.95875 10.21625 -9.9175 9.4325 -9.875 8.625 C-9.71271266 5.83883881 -9.71271266 5.83883881 -12 4 C-12 3.01 -12 2.02 -12 1 C-7.67265609 -1.22923777 -4.71599818 -0.92470553 0 0 Z " fill="#FAF9FB" transform="translate(195,111)"/>
<path d="M0 0 C0 6.27 0 12.54 0 19 C0.66 19 1.32 19 2 19 C2 19.66 2 20.32 2 21 C-1.75 22.125 -1.75 22.125 -4 21 C-3.690625 20.113125 -3.38125 19.22625 -3.0625 18.3125 C-1.42489586 12.69122053 -1.33225589 6.81447802 -1 1 C-3.31 1.66 -5.62 2.32 -8 3 C-7.67 2.01 -7.34 1.02 -7 0 C-5 -1 -5 -1 0 0 Z " fill="#D52426" transform="translate(197,117)"/>
<path d="M0 0 C1.134375 0.020625 2.26875 0.04125 3.4375 0.0625 C3.4375 2.0425 3.4375 4.0225 3.4375 6.0625 C0.72870665 7.41689668 -1.57183268 7.12751451 -4.5625 7.0625 C-4.60504356 5.06295254 -4.60330783 3.06208364 -4.5625 1.0625 C-3.5625 0.0625 -3.5625 0.0625 0 0 Z " fill="#F7F7F6" transform="translate(92.5625,130.9375)"/>
<path d="M0 0 C1.46638622 2.93277244 0.90118914 5.49256133 0.75 8.75 C0.59457073 14.81171384 0.59457073 14.81171384 3.5 19.875 C4.325 20.57625 5.15 21.2775 6 22 C4.00045254 22.04254356 1.99958364 22.04080783 0 22 C-1 21 -1 21 -1.0625 17.9375 C-1.041875 16.968125 -1.02125 15.99875 -1 15 C-1.66 15 -2.32 15 -3 15 C-3 12.03 -3 9.06 -3 6 C-2.67 6 -2.34 6 -2 6 C-1.34 4.02 -0.68 2.04 0 0 Z " fill="#DB2625" transform="translate(79,116)"/>
<path d="M0 0 C1.98 0.66 3.96 1.32 6 2 C6.33 1.34 6.66 0.68 7 0 C7 0.66 7 1.32 7 2 C8.32 2.33 9.64 2.66 11 3 C10.67 9.93 10.34 16.86 10 24 C9.67 24 9.34 24 9 24 C8.67 17.73 8.34 11.46 8 5 C6.02 5 4.04 5 2 5 C1.34 4.67 0.68 4.34 0 4 C0 2.68 0 1.36 0 0 Z " fill="#EBCECA" transform="translate(188,112)"/>
<path d="M0 0 C1.23556641 0.01740234 1.23556641 0.01740234 2.49609375 0.03515625 C3.32238281 0.04417969 4.14867188 0.05320312 5 0.0625 C5.63808594 0.07410156 6.27617188 0.08570312 6.93359375 0.09765625 C6.93359375 0.42765625 6.93359375 0.75765625 6.93359375 1.09765625 C4.62359375 1.42765625 2.31359375 1.75765625 -0.06640625 2.09765625 C-0.39640625 4.07765625 -0.72640625 6.05765625 -1.06640625 8.09765625 C-1.72640625 8.09765625 -2.38640625 8.09765625 -3.06640625 8.09765625 C-3.39640625 8.75765625 -3.72640625 9.41765625 -4.06640625 10.09765625 C-5.05640625 10.09765625 -6.04640625 10.09765625 -7.06640625 10.09765625 C-7.87890625 8.41015625 -7.87890625 8.41015625 -8.06640625 6.09765625 C-5.69140625 3.41015625 -5.69140625 3.41015625 -3.06640625 1.09765625 C-2.06640625 0.09765625 -2.06640625 0.09765625 0 0 Z " fill="#F7EAE5" transform="translate(88.06640625,108.90234375)"/>
<path d="M0 0 C0.598125 0.20625 1.19625 0.4125 1.8125 0.625 C2.1425 2.275 2.4725 3.925 2.8125 5.625 C2.1525 5.625 1.4925 5.625 0.8125 5.625 C0.8125 4.305 0.8125 2.985 0.8125 1.625 C-1.1675 2.615 -1.1675 2.615 -3.1875 3.625 C-3.1875 6.265 -3.1875 8.905 -3.1875 11.625 C-0.5475 11.955 2.0925 12.285 4.8125 12.625 C4.9375 18.375 4.9375 18.375 3.8125 20.625 C3.1525 20.295 2.4925 19.965 1.8125 19.625 C2.4725 17.645 3.1325 15.665 3.8125 13.625 C2.4203125 13.686875 2.4203125 13.686875 1 13.75 C-2.1875 13.625 -2.1875 13.625 -5.1875 11.625 C-5.5859375 9.3125 -5.5859375 9.3125 -5.5625 6.625 C-5.57023437 5.738125 -5.57796875 4.85125 -5.5859375 3.9375 C-5.45445313 3.174375 -5.32296875 2.41125 -5.1875 1.625 C-2.1875 -0.375 -2.1875 -0.375 0 0 Z " fill="#D32A2C" transform="translate(29.1875,118.375)"/>
<path d="M0 0 C1.65 0.33 3.3 0.66 5 1 C6.0257259 5.41062136 6.03684712 7.92630576 4 12 C3.34 12 2.68 12 2 12 C2 10.02 2 8.04 2 6 C-1.0745356 6.7763932 -1.0745356 6.7763932 -3 9 C-3.33 8.01 -3.66 7.02 -4 6 C-2.5459375 5.5978125 -2.5459375 5.5978125 -1.0625 5.1875 C0.4534375 4.5996875 0.4534375 4.5996875 2 4 C2.33 3.01 2.66 2.02 3 1 C2.34 1 1.68 1 1 1 C1 1.66 1 2.32 1 3 C0.34 3 -0.32 3 -1 3 C-0.67 2.01 -0.34 1.02 0 0 Z " fill="#F5E2DD" transform="translate(93,111)"/>
<path d="M0 0 C6.6 0.33 13.2 0.66 20 1 C19.67 1.66 19.34 2.32 19 3 C16.03 2.505 16.03 2.505 13 2 C12.67 2.99 12.34 3.98 12 5 C10.4221875 4.690625 10.4221875 4.690625 8.8125 4.375 C5.00375113 4.00036896 3.33164248 4.28369933 0 6 C0 4.02 0 2.04 0 0 Z " fill="#CB191B" transform="translate(43,106)"/>
<path d="M0 0 C0.33 0.66 0.66 1.32 1 2 C2.98 1.67 4.96 1.34 7 1 C6.66916395 3.97752446 6.12584648 5.81374721 4.4375 8.3125 C0.79657408 10.83314102 -1.62221754 10.42365637 -6 10 C-6.66 9.34 -7.32 8.68 -8 8 C-5.03 8.33 -2.06 8.66 1 9 C0.67 7.68 0.34 6.36 0 5 C0.99 5 1.98 5 3 5 C3 4.34 3 3.68 3 3 C2.01 3.33 1.02 3.66 0 4 C0 2.68 0 1.36 0 0 Z " fill="#F8DFDD" transform="translate(188,130)"/>
<path d="M0 0 C0.68707555 2.49064888 1 4.37886292 1 7 C6.28 7.33 11.56 7.66 17 8 C17 7.34 17 6.68 17 6 C17.66 6 18.32 6 19 6 C19 6.99 19 7.98 19 9 C15.37506666 9.05787784 11.75025143 9.0935542 8.125 9.125 C7.09246094 9.14175781 6.05992188 9.15851563 4.99609375 9.17578125 C4.00996094 9.18222656 3.02382812 9.18867187 2.0078125 9.1953125 C0.64100342 9.21102295 0.64100342 9.21102295 -0.75341797 9.22705078 C-3 9 -3 9 -5 7 C-4.0409375 6.1028125 -4.0409375 6.1028125 -3.0625 5.1875 C-0.79689611 3.09189663 -0.79689611 3.09189663 0 0 Z " fill="#F00917" transform="translate(79,93)"/>
<path d="M0 0 C6.27 0 12.54 0 19 0 C18.34 0.66 17.68 1.32 17 2 C16.67 2.99 16.34 3.98 16 5 C15.34 4.01 14.68 3.02 14 2 C10.95804573 1.66659529 10.95804573 1.66659529 8 2 C6.41727399 3.58272601 6.65264253 5.38034003 6.4375 7.5625 C6.35371094 8.38878906 6.26992187 9.21507813 6.18359375 10.06640625 C6.12300781 10.70449219 6.06242188 11.34257813 6 12 C5.01 11.67 4.02 11.34 3 11 C3.66 11 4.32 11 5 11 C4.67 7.7 4.34 4.4 4 1 C2.68 0.67 1.36 0.34 0 0 Z " fill="#CA3A40" transform="translate(153,107)"/>
<path d="M0 0 C1.32 0 2.64 0 4 0 C4.04898438 0.75925781 4.09796875 1.51851563 4.1484375 2.30078125 C4.22320312 3.29464844 4.29796875 4.28851563 4.375 5.3125 C4.44460937 6.29863281 4.51421875 7.28476563 4.5859375 8.30078125 C4.83865472 11.21528433 4.83865472 11.21528433 7 14 C3.72085945 13.43463094 2.04617179 12.65072255 0 10 C-0.29296875 7.51953125 -0.29296875 7.51953125 -0.1875 4.8125 C-0.16042969 3.91144531 -0.13335937 3.01039063 -0.10546875 2.08203125 C-0.07066406 1.39496094 -0.03585938 0.70789063 0 0 Z " fill="#E71A1F" transform="translate(155,125)"/>
<path d="M0 0 C1.50079982 3.00159965 0.99439154 5.61197347 0.8125 8.9375 C0.72935547 10.80728516 0.72935547 10.80728516 0.64453125 12.71484375 C0 16 0 16 -1.91015625 17.9609375 C-4 19 -4 19 -6.25 18.6875 C-6.8275 18.460625 -7.405 18.23375 -8 18 C-7.505 16.515 -7.505 16.515 -7 15 C-5.35 15 -3.7 15 -2 15 C-1.93941406 14.00097656 -1.87882812 13.00195312 -1.81640625 11.97265625 C-1.73261719 10.68230469 -1.64882812 9.39195312 -1.5625 8.0625 C-1.48128906 6.77472656 -1.40007812 5.48695312 -1.31640625 4.16015625 C-1 1 -1 1 0 0 Z " fill="#F9E9E6" transform="translate(111,122)"/>
<path d="M0 0 C0.99 0 1.98 0 3 0 C3 4.62 3 9.24 3 14 C2.01 14.33 1.02 14.66 0 15 C0 10.05 0 5.1 0 0 Z " fill="#E80B0A" transform="translate(112,122)"/>
<path d="M0 0 C1.65 0 3.3 0 5 0 C4.63870968 5.41935484 4.63870968 5.41935484 1.9375 7.875 C-1.93863643 9.35947778 -4.8648731 9.21026069 -9 9 C-9 8.67 -9 8.34 -9 8 C-8.113125 7.731875 -7.22625 7.46375 -6.3125 7.1875 C-3.2285477 6.0819322 -0.7801557 4.69898404 2 3 C2.66 3 3.32 3 4 3 C4 2.34 4 1.68 4 1 C2.68 0.67 1.36 0.34 0 0 Z " fill="#F4E3DC" transform="translate(28,132)"/>
<path d="M0 0 C0.66 0 1.32 0 2 0 C2 4.29 2 8.58 2 13 C1.67 12.34 1.34 11.68 1 11 C-1.01669827 9.86649466 -1.01669827 9.86649466 -3 9 C-2.25 2.25 -2.25 2.25 0 0 Z " fill="#F90A0B" transform="translate(194,118)"/>
<path d="M0 0 C0.33 0 0.66 0 1 0 C1 4.29 1 8.58 1 13 C3.97 13.495 3.97 13.495 7 14 C7 14.33 7 14.66 7 15 C0.375 15.25 0.375 15.25 -3 13 C-3 12.34 -3 11.68 -3 11 C-2.34 11 -1.68 11 -1 11 C-1.01160156 10.28972656 -1.02320313 9.57945312 -1.03515625 8.84765625 C-1.04417969 7.92855469 -1.05320313 7.00945312 -1.0625 6.0625 C-1.07410156 5.14597656 -1.08570313 4.22945312 -1.09765625 3.28515625 C-1 1 -1 1 0 0 Z " fill="#D7958E" transform="translate(139,125)"/>
<path d="M0 0 C0.33 0 0.66 0 1 0 C1.33 4.29 1.66 8.58 2 13 C2.66 13 3.32 13 4 13 C4 13.66 4 14.32 4 15 C3.01 15.495 3.01 15.495 2 16 C2 16.66 2 17.32 2 18 C1.01 18 0.02 18 -1 18 C-0.98839844 17.18015625 -0.97679687 16.3603125 -0.96484375 15.515625 C-0.95130859 13.89914063 -0.95130859 13.89914063 -0.9375 12.25 C-0.92589844 11.18265625 -0.91429687 10.1153125 -0.90234375 9.015625 C-0.98489913 6.46631499 -1.25382442 4.42066409 -2 2 C-1.34 2 -0.68 2 0 2 C0 1.34 0 0.68 0 0 Z " fill="#F6F5F3" transform="translate(187,120)"/>
<path d="M0 0 C1.33332095 2.6666419 0.67102033 4.16680303 0 7 C-1.32 7.33 -2.64 7.66 -4 8 C-3.67 8.99 -3.34 9.98 -3 11 C-4.32 11.33 -5.64 11.66 -7 12 C-8.32 10.35 -9.64 8.7 -11 7 C-10.67 6.34 -10.34 5.68 -10 5 C-9.67 5.99 -9.34 6.98 -9 8 C-4.12314139 6.64531705 -2.51407619 4.28324091 0 0 Z " fill="#E21E17" transform="translate(43,120)"/>
<path d="M0 0 C0.33 0 0.66 0 1 0 C1 6.6 1 13.2 1 20 C1.99 20 2.98 20 4 20 C3.67 21.65 3.34 23.3 3 25 C2.01 24.67 1.02 24.34 0 24 C0 16.08 0 8.16 0 0 Z " fill="#F8DAD2" transform="translate(169,112)"/>
<path d="M0 0 C6.93 0 13.86 0 21 0 C21 0.99 21 1.98 21 3 C14.07 2.34 7.14 1.68 0 1 C0 0.67 0 0.34 0 0 Z " fill="#CD2427" transform="translate(78,107)"/>
<path d="M0 0 C2.97 0 5.94 0 9 0 C9 1.32 9 2.64 9 4 C6.03 4 3.06 4 0 4 C0 2.68 0 1.36 0 0 Z " fill="#F7D5CE" transform="translate(210,103)"/>
<path d="M0 0 C0.99 0 1.98 0 3 0 C3.11138159 5.45769811 2.91657981 10.61509359 2 16 C0 14 0 14 -0.1953125 10.7421875 C-0.17210937 9.46601562 -0.14890625 8.18984375 -0.125 6.875 C-0.10695313 5.59367187 -0.08890625 4.31234375 -0.0703125 2.9921875 C-0.04710937 2.00476563 -0.02390625 1.01734375 0 0 Z " fill="#F10D0A" transform="translate(9,114)"/>
<path d="M0 0 C0.625 2.375 0.625 2.375 1 5 C0.34 5.66 -0.32 6.32 -1 7 C-1.33 6.67 -1.66 6.34 -2 6 C-2.33 6.66 -2.66 7.32 -3 8 C-4.32 8 -5.64 8 -7 8 C-4.18918919 0 -4.18918919 0 0 0 Z " fill="#F7DCD9" transform="translate(183,112)"/>
<path d="M0 0 C0.33 0 0.66 0 1 0 C1 7.26 1 14.52 1 22 C0.67 22 0.34 22 0 22 C-0.03738281 21.20335938 -0.07476562 20.40671875 -0.11328125 19.5859375 C-0.47956941 13.68223426 -0.78602794 9.03056497 -4 4 C-2.68 4.33 -1.36 4.66 0 5 C-0.2784375 4.0409375 -0.2784375 4.0409375 -0.5625 3.0625 C-0.706875 2.381875 -0.85125 1.70125 -1 1 C-0.67 0.67 -0.34 0.34 0 0 Z " fill="#CD6061" transform="translate(99,105)"/>
<path d="M0 0 C1.134375 0.020625 2.26875 0.04125 3.4375 0.0625 C1.94652342 3.8577131 -0.31950849 5.67292731 -3.5625 8.0625 C-3.94313221 5.7364143 -4.27519945 3.40194736 -4.5625 1.0625 C-3.5625 0.0625 -3.5625 0.0625 0 0 Z " fill="#E61518" transform="translate(82.5625,107.9375)"/>
<path d="M0 0 C3 0.25 3 0.25 5 2.25 C4.625 4.375 4.625 4.375 4 6.25 C4 5.59 4 4.93 4 4.25 C3.01 4.25 2.02 4.25 1 4.25 C1 3.59 1 2.93 1 2.25 C0.34 2.25 -0.32 2.25 -1 2.25 C-1 2.91 -1 3.57 -1 4.25 C-1.99 4.25 -2.98 4.25 -4 4.25 C-4.33 5.24 -4.66 6.23 -5 7.25 C-5.125 4.875 -5.125 4.875 -5 2.25 C-3 0.25 -3 0.25 0 0 Z " fill="#F6EAE5" transform="translate(164,107.75)"/>
<path d="M0 0 C0.66 0.33 1.32 0.66 2 1 C2 1.99 2 2.98 2 4 C1.01 4 0.02 4 -1 4 C-1 5.32 -1 6.64 -1 8 C-4.14737182 7.30058404 -7.02588876 6.23921302 -10 5 C-10 4.67 -10 4.34 -10 4 C-7.98177083 3.54427083 -5.96354167 3.08854167 -3.9453125 2.6328125 C-1.79280036 2.09525572 -1.79280036 2.09525572 0 0 Z " fill="#E6181D" transform="translate(150,136)"/>
<path d="M0 0 C0.99 0 1.98 0 3 0 C3.625 3.375 3.625 3.375 4 7 C3.34 7.66 2.68 8.32 2 9 C1.01 8.67 0.02 8.34 -1 8 C-0.67 5.36 -0.34 2.72 0 0 Z " fill="#F6090D" transform="translate(154,108)"/>
<path d="M0 0 C2 2 2 2 2.125 4.625 C2.08375 5.40875 2.0425 6.1925 2 7 C1.34 7 0.68 7 0 7 C0 6.34 0 5.68 0 5 C-3.3 5.33 -6.6 5.66 -10 6 C-10.33 5.01 -10.66 4.02 -11 3 C-7.37 3 -3.74 3 0 3 C0 2.01 0 1.02 0 0 Z " fill="#C2413E" transform="translate(29,104)"/>
<path d="M0 0 C1.625 2.5 1.625 2.5 3 5 C6.465 4.505 6.465 4.505 10 4 C10.33 4.99 10.66 5.98 11 7 C7.7 7.33 4.4 7.66 1 8 C0.34 6.68 -0.32 5.36 -1 4 C-3.55519921 3.18828772 -3.55519921 3.18828772 -6 3 C-2.25 0 -2.25 0 0 0 Z " fill="#D42F30" transform="translate(100,135)"/>
<path d="M0 0 C0.99 0.33 1.98 0.66 3 1 C9.08568662 1.23294845 9.08568662 1.23294845 15 0 C14.67 0.99 14.34 1.98 14 3 C13.071875 3.144375 12.14375 3.28875 11.1875 3.4375 C7.99274889 3.92100111 7.99274889 3.92100111 5 5 C3.33378384 5.03874921 1.66605828 5.0450286 0 5 C0.66 4.67 1.32 4.34 2 4 C2 3.34 2 2.68 2 2 C1.34 2 0.68 2 0 2 C0 1.34 0 0.68 0 0 Z " fill="#DD292A" transform="translate(16,139)"/>
<path d="M0 0 C0.99 0.33 1.98 0.66 3 1 C3 1.99 3 2.98 3 4 C-3.27 4 -9.54 4 -16 4 C-16 3.34 -16 2.68 -16 2 C-11.05 2 -6.1 2 -1 2 C-0.67 1.34 -0.34 0.68 0 0 Z " fill="#EE1114" transform="translate(59,98)"/>
<path d="M0 0 C1.32 0 2.64 0 4 0 C4 0.66 4 1.32 4 2 C4.66 2 5.32 2 6 2 C6 1.34 6 0.68 6 0 C7.32 0 8.64 0 10 0 C9.34 1.32 8.68 2.64 8 4 C6.02 4 4.04 4 2 4 C1.34 2.68 0.68 1.36 0 0 Z " fill="#F8E9E2" transform="translate(199,136)"/>
<path d="M0 0 C0.66 0 1.32 0 2 0 C2 2.64 2 5.28 2 8 C1.34 8 0.68 8 0 8 C0 7.34 0 6.68 0 6 C-1.32 6 -2.64 6 -4 6 C-4 5.34 -4 4.68 -4 4 C-4.66 3.67 -5.32 3.34 -6 3 C-4.02 3 -2.04 3 0 3 C0 2.01 0 1.02 0 0 Z " fill="#D13C45" transform="translate(196,104)"/>
<path d="M0 0 C0.66 0.66 1.32 1.32 2 2 C1.34 2 0.68 2 0 2 C0 2.66 0 3.32 0 4 C0.66 4.33 1.32 4.66 2 5 C2 6.65 2 8.3 2 10 C1.67 8.68 1.34 7.36 1 6 C0.21625 5.896875 -0.5675 5.79375 -1.375 5.6875 C-4 5 -4 5 -6 2 C-4.02 1.34 -2.04 0.68 0 0 Z " fill="#E82324" transform="translate(74,88)"/>
<path d="M0 0 C1.32 0.66 2.64 1.32 4 2 C3.236875 2.7425 2.47375 3.485 1.6875 4.25 C-0.4393702 6.4263323 -2.2559956 8.52167796 -4 11 C-5.32 10.67 -6.64 10.34 -8 10 C-6.68 9.67 -5.36 9.34 -4 9 C-4 8.01 -4 7.02 -4 6 C-3.34 6 -2.68 6 -2 6 C-2 5.01 -2 4.02 -2 3 C-1.34 3 -0.68 3 0 3 C0 2.01 0 1.02 0 0 Z " fill="#F5DAD1" transform="translate(42,117)"/>
<path d="M0 0 C6.0546875 -0.1953125 6.0546875 -0.1953125 8 0 C10 2 10 2 10.1953125 4.6015625 C10.17210937 5.59929687 10.14890625 6.59703125 10.125 7.625 C10.10695313 8.62789062 10.08890625 9.63078125 10.0703125 10.6640625 C10.03550781 11.82035156 10.03550781 11.82035156 10 13 C9.34 13 8.68 13 8 13 C7.93941406 12.37351562 7.87882812 11.74703125 7.81640625 11.1015625 C7.73261719 10.28429687 7.64882813 9.46703125 7.5625 8.625 C7.48128906 7.81289062 7.40007813 7.00078125 7.31640625 6.1640625 C7.10909886 3.95727195 7.10909886 3.95727195 6 2 C2.97065509 1.34227572 2.97065509 1.34227572 0 1 C0 0.67 0 0.34 0 0 Z " fill="#D04C48" transform="translate(34,100)"/>
<path d="M0 0 C0.99 0 1.98 0 3 0 C2.71097731 3.46827222 2.18328212 4.80653554 -0.25 7.375 C-3 9 -3 9 -5.8125 8.75 C-6.8953125 8.37875 -6.8953125 8.37875 -8 8 C-8 7.67 -8 7.34 -8 7 C-6.02 7 -4.04 7 -2 7 C-2 6.34 -2 5.68 -2 5 C-1.34 5 -0.68 5 0 5 C-0.33 4.01 -0.66 3.02 -1 2 C-0.67 1.34 -0.34 0.68 0 0 Z " fill="#EDBEB9" transform="translate(72,94)"/>
<path d="M0 0 C0 0.66 0 1.32 0 2 C1.32 1.67 2.64 1.34 4 1 C3.67 1.66 3.34 2.32 3 3 C-0.44850588 4.02523148 -2.58820408 3.88046346 -6 3 C-8.18703385 3.37907282 -8.18703385 3.37907282 -10 4 C-10 3.01 -10 2.02 -10 1 C-2.25 0 -2.25 0 0 0 Z " fill="#EF0808" transform="translate(173,140)"/>
<path d="M0 0 C0.495 0.495 0.99 0.99 1.5 1.5 C5.11630158 3.66978095 7.82231616 3.20888419 12 3 C11.67 3.66 11.34 4.32 11 5 C7.18015204 5.77811718 4.73159669 6.24386556 1 5 C0.67 5.66 0.34 6.32 0 7 C-1.04449911 3.86650268 -0.93423645 3.01031744 0 0 Z " fill="#DF2E2E" transform="translate(63,136)"/>
<path d="M0 0 C0.33 0 0.66 0 1 0 C1.06058594 0.60328125 1.12117187 1.2065625 1.18359375 1.828125 C1.26738281 2.62734375 1.35117188 3.4265625 1.4375 4.25 C1.55931641 5.43335938 1.55931641 5.43335938 1.68359375 6.640625 C1.97634993 8.82364639 2.42064419 10.8773182 3 13 C2.01 13.33 1.02 13.66 0 14 C0 14.66 0 15.32 0 16 C-0.99 16.33 -1.98 16.66 -3 17 C-3 16.34 -3 15.68 -3 15 C-2.34 15 -1.68 15 -1 15 C-0.67 10.05 -0.34 5.1 0 0 Z " fill="#DC221E" transform="translate(11,123)"/>
<path d="M0 0 C-1.32 0.33 -2.64 0.66 -4 1 C-4.33 2.32 -4.66 3.64 -5 5 C-5 4.34 -5 3.68 -5 3 C-5.99 3 -6.98 3 -8 3 C-8 4.98 -8 6.96 -8 9 C-8.33 9 -8.66 9 -9 9 C-9.48492623 2.57472739 -9.48492623 2.57472739 -7.3125 0 C-4.44360465 -1.2406034 -2.94358324 -0.89942821 0 0 Z " fill="#F5E6E2" transform="translate(149,102)"/>
<path d="M0 0 C0.66 0 1.32 0 2 0 C2 0.66 2 1.32 2 2 C2.99 2 3.98 2 5 2 C5 1.34 5 0.68 5 0 C5.99 0 6.98 0 8 0 C6.125 3.875 6.125 3.875 5 5 C3.33382885 5.04063832 1.66611905 5.042721 0 5 C0 3.35 0 1.7 0 0 Z " fill="#F6EAE5" transform="translate(143,134)"/>
<path d="M0 0 C1.485 0.99 1.485 0.99 3 2 C2.51171875 8.0546875 2.51171875 8.0546875 2 10 C1.01 10.66 0.02 11.32 -1 12 C-1.02712066 10.56260487 -1.04645067 9.12506137 -1.0625 7.6875 C-1.07410156 6.88699219 -1.08570313 6.08648437 -1.09765625 5.26171875 C-1 3 -1 3 0 0 Z " fill="#F50F0D" transform="translate(213,131)"/>
<path d="M0 0 C0.33 0.66 0.66 1.32 1 2 C-0.65 1.67 -2.3 1.34 -4 1 C-4 1.99 -4 2.98 -4 4 C-8.455 3.01 -8.455 3.01 -13 2 C-13 1.67 -13 1.34 -13 1 C-8.62426048 0.40667939 -4.42471556 -0.13827236 0 0 Z " fill="#E40A0B" transform="translate(99,138)"/>
<path d="M0 0 C0.33 0 0.66 0 1 0 C1 1.65 1 3.3 1 5 C0.360625 5.103125 -0.27875 5.20625 -0.9375 5.3125 C-1.618125 5.539375 -2.29875 5.76625 -3 6 C-3.33 6.99 -3.66 7.98 -4 9 C-4.33 9 -4.66 9 -5 9 C-5 7.02 -5 5.04 -5 3 C-4.360625 2.87625 -3.72125 2.7525 -3.0625 2.625 C-2.0415625 2.315625 -2.0415625 2.315625 -1 2 C-0.67 1.34 -0.34 0.68 0 0 Z " fill="#EB0F13" transform="translate(98,120)"/>
<path d="M0 0 C2.475 0.495 2.475 0.495 5 1 C5 2.32 5 3.64 5 5 C3.35 5.66 1.7 6.32 0 7 C0 4.69 0 2.38 0 0 Z " fill="#F8E6DF" transform="translate(69,102)"/>
<path d="M0 0 C1.70884005 1.62339805 3.37446717 3.29319053 5 5 C5 5.66 5 6.32 5 7 C3.35 7.33 1.7 7.66 0 8 C-0.38063221 5.6739143 -0.71269945 3.33944736 -1 1 C-0.67 0.67 -0.34 0.34 0 0 Z " fill="#EB1518" transform="translate(134,135)"/>
<path d="M0 0 C0 2.33333333 0 4.66666667 0 7 C0.99 7 1.98 7 3 7 C2.67 8.32 2.34 9.64 2 11 C2 10.01 2 9.02 2 8 C0.68 8.33 -0.64 8.66 -2 9 C-2.6875 6.75 -2.6875 6.75 -3 4 C-1.5625 1.6875 -1.5625 1.6875 0 0 Z " fill="#F4D0CD" transform="translate(98,127)"/>
<path d="M0 0 C1.79240663 0.11389875 3.58394835 0.24147687 5.375 0.375 C6.87160156 0.47941406 6.87160156 0.47941406 8.3984375 0.5859375 C11 1 11 1 13 3 C11.02039479 3 9.04031534 2.95916235 7.0625 2.875 C4.05043615 2.99794138 2.52775227 3.44446014 0 5 C0 3.35 0 1.7 0 0 Z " fill="#D92120" transform="translate(196,99)"/>
<path d="M0 0 C2.31 1.98 4.62 3.96 7 6 C6.01 6.33 5.02 6.66 4 7 C1.3125 5.5625 1.3125 5.5625 -1 4 C-0.67 2.68 -0.34 1.36 0 0 Z " fill="#E5262E" transform="translate(49,87)"/>
<path d="M0 0 C0.91058531 3.07322544 1.08886184 5.80097361 1 9 C-1.97 8.505 -1.97 8.505 -5 8 C-4.360625 7.236875 -3.72125 6.47375 -3.0625 5.6875 C-0.85767219 3.11753287 -0.85767219 3.11753287 0 0 Z " fill="#F01008" transform="translate(79,93)"/>
<path d="M0 0 C2.475 0.495 2.475 0.495 5 1 C3.63016497 4.16115776 3.0109362 4.9927092 0 7 C0 4.69 0 2.38 0 0 Z " fill="#D81619" transform="translate(112,107)"/>
<path d="M0 0 C1.65 0 3.3 0 5 0 C5 0.66 5 1.32 5 2 C6.45833358 3.62514468 6.45833358 3.62514468 8 5 C4.62537285 4.45276317 2.91765 3.9451 0 2 C0 1.34 0 0.68 0 0 Z " fill="#FAE8E3" transform="translate(59,96)"/>
<path d="M0 0 C0.66 0.99 1.32 1.98 2 3 C1.67 3.99 1.34 4.98 1 6 C-0.65 6.33 -2.3 6.66 -4 7 C-4 6.34 -4 5.68 -4 5 C-3.34 5 -2.68 5 -2 5 C-1.34 3.35 -0.68 1.7 0 0 Z " fill="#EF0E17" transform="translate(76,137)"/>
<path d="M0 0 C0.33 0.66 0.66 1.32 1 2 C2.98 1.67 4.96 1.34 7 1 C6.67 2.65 6.34 4.3 6 6 C5.01 5.67 4.02 5.34 3 5 C3 4.34 3 3.68 3 3 C2.01 3.33 1.02 3.66 0 4 C0 2.68 0 1.36 0 0 Z " fill="#EFC4BD" transform="translate(188,130)"/>
<path d="M0 0 C-0.639375 0.165 -1.27875 0.33 -1.9375 0.5 C-4.16119241 1.781786 -4.16119241 1.781786 -4.48828125 3.9140625 C-4.7275978 5.93575155 -4.86893028 7.96841939 -5 10 C-5.33 10 -5.66 10 -6 10 C-6 7.36 -6 4.72 -6 2 C-6.66 1.67 -7.32 1.34 -8 1 C-3.375 -1.125 -3.375 -1.125 0 0 Z " fill="#F0C8C4" transform="translate(29,118)"/>
<path d="M0 0 C0.89332031 0.12761719 1.78664062 0.25523438 2.70703125 0.38671875 C3.60808594 0.50660156 4.50914062 0.62648438 5.4375 0.75 C6.12457031 0.85699219 6.81164062 0.96398437 7.51953125 1.07421875 C7.51953125 1.40421875 7.51953125 1.73421875 7.51953125 2.07421875 C5.69421875 2.04328125 5.69421875 2.04328125 3.83203125 2.01171875 C0.59975803 2.00597759 -2.32981616 2.2865556 -5.48046875 3.07421875 C-3.68981165 0.76004728 -2.99175075 0.08951695 0 0 Z " fill="#F2C2C5" transform="translate(188.48046875,108.92578125)"/>
<path d="M0 0 C1.65 0 3.3 0 5 0 C4.67 1.98 4.34 3.96 4 6 C3.01 6.33 2.02 6.66 1 7 C0.67 6.01 0.34 5.02 0 4 C1.32 3.67 2.64 3.34 4 3 C4 2.34 4 1.68 4 1 C2.68 0.67 1.36 0.34 0 0 Z " fill="#EEBCBA" transform="translate(28,132)"/>
<path d="M0 0 C1.4606285 2.64738916 2 3.89448334 2 7 C1.01 7 0.02 7 -1 7 C-1.625 5.1875 -1.625 5.1875 -2 3 C-1.34 2.01 -0.68 1.02 0 0 Z " fill="#F5DDD9" transform="translate(82,112)"/>
<path d="M0 0 C0.99 0 1.98 0 3 0 C3 0.99 3 1.98 3 3 C2.34 3 1.68 3 1 3 C0.34 4.32 -0.32 5.64 -1 7 C-1.33 5.35 -1.66 3.7 -2 2 C-1.34 2 -0.68 2 0 2 C0 1.34 0 0.68 0 0 Z " fill="#DD1C1E" transform="translate(31,99)"/>
<path d="M0 0 C2.64 0.33 5.28 0.66 8 1 C7.67 1.66 7.34 2.32 7 3 C6.01 3 5.02 3 4 3 C4.33 3.66 4.66 4.32 5 5 C4.01 4.67 3.02 4.34 2 4 C2 3.34 2 2.68 2 2 C1.34 2 0.68 2 0 2 C0 1.34 0 0.68 0 0 Z " fill="#F71114" transform="translate(78,137)"/>
<path d="M0 0 C-5.625 3 -5.625 3 -9 3 C-9 2.01 -9 1.02 -9 0 C-5.62182575 -0.84454356 -3.32534757 -1.10844919 0 0 Z " fill="#D23C36" transform="translate(107,101)"/>
<path d="M0 0 C0 0.66 0 1.32 0 2 C-2.64 1.67 -5.28 1.34 -8 1 C-8 0.34 -8 -0.32 -8 -1 C-4.37673261 -2.2077558 -3.35853631 -1.54311128 0 0 Z " fill="#E71715" transform="translate(59,96)"/>
<path d="M0 0 C3.63 0 7.26 0 11 0 C11 0.33 11 0.66 11 1 C9.88625 1.309375 8.7725 1.61875 7.625 1.9375 C4.2054845 2.82326483 4.2054845 2.82326483 2 4 C1.34 2.68 0.68 1.36 0 0 Z " fill="#E12F2C" transform="translate(48,83)"/>
<path d="M0 0 C1.0013988 3.00419641 1.51421457 5.87709365 2 9 C-1 7 -1 7 -1.6875 3.875 C-1.790625 2.92625 -1.89375 1.9775 -2 1 C-1.34 0.67 -0.68 0.34 0 0 Z " fill="#FAD5D5" transform="translate(178,129)"/>
<path d="M0 0 C1.33332095 2.6666419 0.67102033 4.16680303 0 7 C-1.65 7.33 -3.3 7.66 -5 8 C-3.35 5.36 -1.7 2.72 0 0 Z " fill="#D91E1F" transform="translate(43,120)"/>
<path d="M0 0 C0.33 0 0.66 0 1 0 C1 3.3 1 6.6 1 10 C-2 6 -2 6 -2 2 C-1.34 2 -0.68 2 0 2 C0 1.34 0 0.68 0 0 Z " fill="#F9D5D7" transform="translate(187,120)"/>
<path d="M0 0 C1.98 0.66 3.96 1.32 6 2 C5.01 2.33 4.02 2.66 3 3 C2.67 3.99 2.34 4.98 2 6 C1.34 4.02 0.68 2.04 0 0 Z " fill="#F6E5E0" transform="translate(31,120)"/>
<path d="M0 0 C-0.66 1.65 -1.32 3.3 -2 5 C-3.32 5 -4.64 5 -6 5 C-4.87312259 1.61936778 -3.78825335 0 0 0 Z " fill="#F2E7DE" transform="translate(182,115)"/>
<path d="M0 0 C2.875 -0.1875 2.875 -0.1875 6 0 C6.66 0.99 7.32 1.98 8 3 C6.68 3 5.36 3 4 3 C4 2.34 4 1.68 4 1 C2.35 1.33 0.7 1.66 -1 2 C-0.67 1.34 -0.34 0.68 0 0 Z M2 3 C4 4 4 4 4 4 Z " fill="#F2C2C0" transform="translate(118,108)"/>
<path d="M0 0 C2 3 2 3 1.625 5.1875 C1.41875 5.785625 1.2125 6.38375 1 7 C0.67 6.34 0.34 5.68 0 5 C-0.99 4.67 -1.98 4.34 -3 4 C-2.01 2.68 -1.02 1.36 0 0 Z " fill="#DB2023" transform="translate(74,98)"/>
</svg>
